<svg xmlns="http://www.w3.org/2000/svg" xmlns:svg="http://www.w3.org/2000/svg" id="svg7384" width="16" height="16" version="1.1"><metadata id="metadata90"/><title id="title9167">elementary Symbolic Icon Theme</title><g id="layer9" display="inline" transform="translate(-273.0004,582)"><path d="m 288.0004,-574 c 0,-3.22467 -1.20472,-5.98186 -2.94601,-7.24949 l -1.1553,1.03977 c 1.49941,1.06176 2.54166,3.45264 2.54166,6.20972 0,2.75707 -1.04225,5.14797 -2.54166,6.20972 l 1.1553,1.03977 c 1.74129,-1.26764 2.94601,-4.02483 2.94601,-7.24949 z" style="marker:none" id="path6945-2" fill="#bebebe" fill-opacity="1" fill-rule="nonzero" stroke="none" stroke-width="1.823" color="#bebebe" display="inline" enable-background="accumulate" overflow="visible" visibility="visible"/><path d="m 284.93886,-574 c 0,-2.18076 -0.82876,-4.08463 -2.07953,-5.28549 l -1.06865,0.95312 c 0.96536,1.02666 1.58853,2.58275 1.58853,4.33237 0,1.74962 -0.62317,3.3057 -1.58853,4.33236 l 1.06865,0.95312 c 1.25077,-1.20085 2.07953,-3.10473 2.07953,-5.28548 z" style="marker:none" id="path6943-6" fill="#bebebe" fill-opacity="1" fill-rule="nonzero" stroke="none" stroke-width="1.823" color="#bebebe" display="inline" enable-background="accumulate" overflow="visible" visibility="visible"/><path d="m 281.99286,-574 c 0,-1.32571 -0.43938,-2.54197 -1.1553,-3.49478 l -1.09753,0.98201 c 0.43232,0.72272 0.69317,1.58815 0.69317,2.51277 0,0.92461 -0.26085,1.79004 -0.69317,2.51277 l 1.09753,0.982 c 0.71592,-0.95281 1.1553,-2.16906 1.1553,-3.49477 z" style="marker:none" id="path6941-5" fill="#bebebe" fill-opacity="1" fill-rule="nonzero" stroke="none" stroke-width="1.823" color="#bebebe" display="inline" enable-background="accumulate" overflow="visible" visibility="visible"/><path d="m 273.0004,-576 0,4 1.65207,0 3.34793,3.36924 0,-10.73848 -3.34793,3.36924 z" style="marker:none" id="path3375-3-3-6-8" fill="#bebebe" fill-opacity="1" fill-rule="nonzero" stroke="none" stroke-width="1.823" color="#bebebe" display="inline" enable-background="accumulate" overflow="visible" visibility="visible"/></g></svg>
