<svg xmlns="http://www.w3.org/2000/svg" xmlns:svg="http://www.w3.org/2000/svg" xmlns:xlink="http://www.w3.org/1999/xlink" id="svg3489" width="64" height="64" version="1.1"><defs id="defs3491"><linearGradient id="linearGradient4806"><stop id="stop4808" offset="0" stop-color="#fff" stop-opacity="1"/><stop id="stop4810" offset=".424" stop-color="#fff" stop-opacity=".235"/><stop id="stop4812" offset=".821" stop-color="#fff" stop-opacity=".157"/><stop id="stop4814" offset="1" stop-color="#fff" stop-opacity=".392"/></linearGradient><linearGradient id="linearGradient3820-7-2"><stop id="stop3822-2-6" offset="0" stop-color="#000" stop-opacity="1"/><stop id="stop3824-1-2" offset="1" stop-color="#000" stop-opacity="0"/></linearGradient><linearGradient id="linearGradient3957-2"><stop id="stop3959-62" offset="0" stop-color="#fff" stop-opacity="1"/><stop id="stop3961-5" offset="1" stop-color="#c1c1c1" stop-opacity="1"/></linearGradient><linearGradient id="linearGradient2867-449-88-871-390-598-476-591-434-148-57-177-3-8"><stop id="stop3750-8-9" offset="0" stop-color="#90dbec" stop-opacity="1"/><stop id="stop3752-3-2" offset=".262" stop-color="#42baea" stop-opacity="1"/><stop id="stop3754-7-2" offset=".705" stop-color="#3689e6" stop-opacity="1"/><stop id="stop3756-9-3" offset="1" stop-color="#2b63a0" stop-opacity="1"/></linearGradient><linearGradient id="linearGradient3957"><stop id="stop3959" offset="0" stop-color="#fff" stop-opacity="1"/><stop id="stop3961" offset="1" stop-color="#c1c1c1" stop-opacity="1"/></linearGradient><linearGradient id="linearGradient4168"><stop id="stop4170" offset="0" stop-color="#f8b17e" stop-opacity="1"/><stop id="stop4172" offset=".232" stop-color="#e35d4f" stop-opacity="1"/><stop id="stop4174" offset=".591" stop-color="#c6262e" stop-opacity="1"/><stop id="stop4176" offset="1" stop-color="#690b54" stop-opacity="1"/></linearGradient><linearGradient id="linearGradient3293" x1="71.204" x2="71.204" y1="15.369" y2="40.496" gradientTransform="matrix(2.3268746,0,0,2.3268746,-135.94475,-32.842783)" gradientUnits="userSpaceOnUse" xlink:href="#linearGradient4806"/><radialGradient id="radialGradient3300" cx="99.189" cy="185.297" r="62.769" fx="99.189" fy="185.297" gradientTransform="matrix(0.3823536,7.5555777e-8,-1.8372241e-8,0.1115198,-5.9254271,36.335849)" gradientUnits="userSpaceOnUse" xlink:href="#linearGradient3820-7-2"/><linearGradient id="linearGradient4131" x1="24" x2="24" y1="22" y2="26" gradientTransform="translate(8.0000046,8.0000026)" gradientUnits="userSpaceOnUse" xlink:href="#linearGradient3957"/><linearGradient id="linearGradient4137" x1="21.014" x2="22.806" y1="25.434" y2="27.344" gradientTransform="matrix(1.4390244,0,0,1.4390244,-2.536585,-2.5365857)" gradientUnits="userSpaceOnUse" xlink:href="#linearGradient3957-2"/><linearGradient id="linearGradient4140" x1="27.925" x2="33.448" y1="15.149" y2="22.986" gradientTransform="matrix(1.4390244,0,0,1.4390244,-2.536585,-2.5365857)" gradientUnits="userSpaceOnUse" xlink:href="#linearGradient4168"/><radialGradient id="radialGradient4145" cx="3.972" cy="8.45" r="20" fx="3.972" fy="8.45" gradientTransform="matrix(0,3.5958841,-3.8040162,-9.7874431e-8,64.14322,-20.064576)" gradientUnits="userSpaceOnUse" xlink:href="#linearGradient2867-449-88-871-390-598-476-591-434-148-57-177-3-8"/><radialGradient id="radialGradient4192" cx="99.189" cy="185.297" r="62.769" fx="99.189" fy="185.297" gradientTransform="matrix(0.2549024,5.3967361e-8,-1.2248161e-8,0.07965545,6.7163816,44.240666)" gradientUnits="userSpaceOnUse" xlink:href="#linearGradient3820-7-2"/></defs><metadata id="metadata3494"/><g id="g4198"><path id="path3818-0" fill="url(#radialGradient3300)" fill-opacity="1" stroke="none" d="m 55.999998,57.0017 a 24,6.9985714 0 1 1 -47.9999991,0 24,6.9985714 0 1 1 47.9999991,0 z" opacity=".2"/><path id="path4190" fill="url(#radialGradient4192)" fill-opacity="1" stroke="none" d="m 47.999998,59.0017 a 16,4.9988822 0 1 1 -31.999999,0 16,4.9988822 0 1 1 31.999999,0 z" opacity=".4"/></g><path d="M 32.000004,2.4999968 C 15.722922,2.4999968 2.5,15.722913 2.5,31.999997 2.5,48.277081 15.722922,61.500004 32.000004,61.5 48.27708,61.5 61.500016,48.277081 61.5,31.999997 61.5,15.722913 48.27708,2.4999968 32.000004,2.4999968 z" style="marker:none" id="path2555" fill="url(#radialGradient4145)" fill-opacity="1" fill-rule="nonzero" stroke="none" stroke-width="1" color="#000" display="inline" enable-background="accumulate" overflow="visible" visibility="visible"/><path id="path2555-7-1" fill="#000" fill-opacity="0" fill-rule="nonzero" stroke="#00537d" stroke-dasharray="none" stroke-dashoffset="0" stroke-linecap="round" stroke-linejoin="round" stroke-miterlimit="4" stroke-opacity="1" stroke-width="1" d="m 32,2.499999 c -16.277082,0 -29.5,13.222915 -29.5,29.499998 0,16.277083 13.222918,29.500005 29.5,29.5 16.27708,0 29.50001,-13.222917 29.5,-29.5 C 61.5,15.722914 48.27708,2.499999 32,2.499999 z" color="#000" display="inline" enable-background="accumulate" opacity=".5" overflow="visible" visibility="visible" style="marker:none"/><path id="path3019" fill="none" stroke="url(#linearGradient3293)" stroke-dasharray="none" stroke-dashoffset="0" stroke-linecap="round" stroke-linejoin="round" stroke-miterlimit="4" stroke-opacity="1" stroke-width="1" d="m 60.50001,31.999999 c 0,15.740115 -12.7599,28.499999 -28.50002,28.499999 -15.740099,0 -28.499991,-12.759884 -28.499991,-28.499999 0,-15.740116 12.759892,-28.5000013 28.499991,-28.5000013 15.74012,0 28.50002,12.7598853 28.50002,28.5000013 z" color="#000" display="inline" enable-background="accumulate" opacity=".5" overflow="visible" visibility="visible" style="marker:none"/><g id="g4194" transform="matrix(1.1116615,0,0,1.1116615,-3.2287342,-6.5228698)"><path enable-background="accumulate" style="marker:none" id="path3159" fill="#000" fill-opacity="1" fill-rule="nonzero" stroke="none" stroke-width="1" d="m 30.375,18.09375 c -3.815764,0.382377 -7.60319,2.076818 -8.96875,5.40625 -0.518561,1.212444 -0.51172,2.655538 0,3.96875 C 21.91797,28.781962 23.14879,30 24.875,30 c 0.993167,0 1.845916,-0.374395 2.40625,-0.9375 0.560334,-0.563105 0.824981,-1.271697 0.90625,-1.9375 0.125029,-1.024342 -0.233309,-1.838746 -0.375,-2.34375 0.04869,0.173552 0.03636,-0.174591 0.25,-0.53125 0.213645,-0.356659 0.565692,-0.725601 0.8125,-0.875 0.279628,-0.169266 0.594988,-0.294625 0.84375,-0.375 0.248762,-0.08038 0.356915,-0.08116 0.53125,-0.125 2.16462,-0.544223 4.420804,0.75786 5.28125,2.15625 0.349241,0.567582 0.365744,1.352197 0.03125,2.4375 -0.334494,1.085303 -1.001013,2.379693 -1.84375,3.65625 -1.750609,2.651786 -3.820892,5.767043 -3.8125,9.34375 0,1.155589 -0.105944,1.572962 0,2.28125 0.04528,0.302713 0.228327,0.565239 0.40625,0.71875 0.177923,0.153511 0.349832,0.230237 0.5,0.28125 0.300336,0.102025 0.537575,0.116778 0.8125,0.125 0.54985,0.01644 1.150761,-0.05239 1.6875,-0.15625 a 0.98751423,0.98751423 0 0 0 0.8125,-1 c -0.07831,-2.924257 0.477118,-5.477786 2.96875,-7.375 A 0.98751423,0.98751423 0 0 0 37.125,35.3125 c 1.50747,-1.228994 3.002593,-2.60327 4.125,-4.21875 1.110628,-1.598526 1.840423,-3.472872 1.6875,-5.5 l 0.03125,0 c -4.59e-4,-0.02395 -0.03049,-0.03862 -0.03125,-0.0625 -0.06481,-2.034916 -1.197103,-3.802053 -2.8125,-5.0625 -1.619302,-1.263495 -3.728972,-2.062598 -5.9375,-2.28125 -0.02004,-0.0029 -0.04242,0.0028 -0.0625,0 -1.205469,-0.170283 -2.485421,-0.220473 -3.75,-0.09375 z m 1.5625,27.8125 c -3.266336,-0.133664 -5.531173,3.728558 -3.59375,6.3125 0.0038,0.0058 -0.0038,0.02545 0,0.03125 0.01534,0.0201 0.0154,0.04256 0.03125,0.0625 l 0.03125,-0.03125 c 0.941619,1.366272 2.584117,1.861794 4.0625,1.65625 1.486041,-0.206608 2.926088,-1.153971 3.40625,-2.75 l 0.0625,0.03125 c 0.01127,-0.03089 -0.01038,-0.06281 0,-0.09375 0.846464,-2.523473 -1.222617,-5.216641 -3.9375,-5.21875 -0.02141,-1.7e-5 -0.04102,-3.17e-4 -0.0625,0 z" color="#000" display="inline" font-family="Standard Symbols L" font-size="72" font-style="normal" font-weight="bold" opacity=".05" overflow="visible" visibility="visible"/><path enable-background="accumulate" style="marker:none" id="path2502" fill="#000" fill-opacity="1" fill-rule="nonzero" stroke="none" stroke-width="1" d="m 33.138048,42.752331 c -0.0826,-3.084535 0.577967,-6.07896 3.363586,-8.200026 2.942325,-2.398788 5.776019,-5.400001 5.476558,-8.937751 -0.06539,-3.411839 -3.865302,-6.085387 -7.959432,-6.469797 -4.605233,-0.667427 -10.177536,0.983039 -11.720718,4.745539 -0.782668,1.829952 -0.05688,5.113101 2.569744,5.113101 1.536315,0 2.241952,-1.038224 2.357877,-1.987952 0.08771,-0.718595 -0.194293,-1.360295 -0.360832,-1.953859 -0.189763,-0.676329 0.620317,-1.987124 1.502604,-2.521194 0.737253,-0.446279 1.508608,-0.595925 1.622309,-0.624514 2.647681,-0.665673 5.287038,0.804711 6.388224,2.59435 1.101187,1.789636 -0.110885,4.50417 -1.853569,7.143946 -1.742683,2.63978 -3.612894,5.638028 -3.605422,8.822662 0,1.212392 -0.103258,1.624269 -0.02989,2.114771 0.05862,0.391898 1.299033,0.34454 2.248962,0.160724 z m -1.208319,4.151619 c -2.531602,-0.143775 -4.283821,2.858613 -2.76296,4.771541 1.358201,2.112064 5.166282,1.590684 5.818986,-0.801016 0.678576,-1.859853 -0.954427,-4.001572 -3.056025,-3.970527 l -1e-6,2e-6 z" color="#000" display="inline" font-family="Standard Symbols L" font-size="72" font-style="normal" font-weight="bold" opacity=".15" overflow="visible" visibility="visible"/><path enable-background="accumulate" style="marker:none" id="path3298" fill="#fff" fill-opacity="1" fill-rule="nonzero" stroke="none" d="m 33.138048,41.752331 c -0.0826,-3.084535 0.577967,-6.07896 3.363586,-8.200026 2.942325,-2.398788 5.776019,-5.400001 5.476558,-8.937751 -0.06539,-3.411839 -3.865302,-6.085387 -7.959432,-6.469797 -4.605233,-0.667427 -10.177536,0.983039 -11.720718,4.745539 -0.782668,1.829952 -0.05688,5.113101 2.569744,5.113101 1.536315,0 2.241952,-1.038224 2.357877,-1.987952 0.08771,-0.718595 -0.194293,-1.360295 -0.360832,-1.953859 -0.189763,-0.676329 0.620317,-1.987124 1.502604,-2.521194 0.737253,-0.446279 1.508608,-0.595925 1.622309,-0.624514 2.647681,-0.665673 5.287038,0.804711 6.388224,2.59435 1.101187,1.789636 -0.110885,4.50417 -1.853569,7.143946 -1.742683,2.63978 -3.612894,5.638028 -3.605422,8.822662 0,1.212392 -0.103258,1.624269 -0.02989,2.114771 0.05862,0.391898 1.299033,0.34454 2.248962,0.160724 z m -1.208319,4.151619 c -2.531602,-0.143775 -4.283821,2.858613 -2.76296,4.771541 1.358201,2.112064 5.166282,1.590684 5.818986,-0.801016 0.678576,-1.859853 -0.954427,-4.001572 -3.056025,-3.970527 l -1e-6,2e-6 z" color="#000" display="inline" font-family="Standard Symbols L" font-size="72" font-style="normal" font-weight="bold" overflow="visible" visibility="visible"/></g></svg>
