<svg xmlns="http://www.w3.org/2000/svg" xmlns:svg="http://www.w3.org/2000/svg" xmlns:xlink="http://www.w3.org/1999/xlink" id="svg3489" width="64" height="64" version="1.1"><defs id="defs3491"><linearGradient id="linearGradient4806"><stop id="stop4808" offset="0" stop-color="#fff" stop-opacity="1"/><stop id="stop4810" offset=".424" stop-color="#fff" stop-opacity=".235"/><stop id="stop4812" offset=".821" stop-color="#fff" stop-opacity=".157"/><stop id="stop4814" offset="1" stop-color="#fff" stop-opacity=".392"/></linearGradient><linearGradient id="linearGradient3820-7-2"><stop id="stop3822-2-6" offset="0" stop-color="#000" stop-opacity="1"/><stop id="stop3824-1-2" offset="1" stop-color="#000" stop-opacity="0"/></linearGradient><linearGradient id="linearGradient3957-2"><stop id="stop3959-62" offset="0" stop-color="#fff" stop-opacity="1"/><stop id="stop3961-5" offset="1" stop-color="#c1c1c1" stop-opacity="1"/></linearGradient><linearGradient id="linearGradient2867-449-88-871-390-598-476-591-434-148-57-177-3-8"><stop id="stop3750-8-9" offset="0" stop-color="#90dbec" stop-opacity="1"/><stop id="stop3752-3-2" offset=".262" stop-color="#42baea" stop-opacity="1"/><stop id="stop3754-7-2" offset=".705" stop-color="#3689e6" stop-opacity="1"/><stop id="stop3756-9-3" offset="1" stop-color="#2b63a0" stop-opacity="1"/></linearGradient><linearGradient id="linearGradient3957"><stop id="stop3959" offset="0" stop-color="#fff" stop-opacity="1"/><stop id="stop3961" offset="1" stop-color="#c1c1c1" stop-opacity="1"/></linearGradient><linearGradient id="linearGradient4168"><stop id="stop4170" offset="0" stop-color="#f8b17e" stop-opacity="1"/><stop id="stop4172" offset=".232" stop-color="#e35d4f" stop-opacity="1"/><stop id="stop4174" offset=".591" stop-color="#c6262e" stop-opacity="1"/><stop id="stop4176" offset="1" stop-color="#690b54" stop-opacity="1"/></linearGradient><linearGradient id="linearGradient3293" x1="71.204" x2="71.204" y1="15.369" y2="40.496" gradientTransform="matrix(2.3268746,0,0,2.3268746,-135.94475,-32.842783)" gradientUnits="userSpaceOnUse" xlink:href="#linearGradient4806"/><radialGradient id="radialGradient3300" cx="99.189" cy="185.297" r="62.769" fx="99.189" fy="185.297" gradientTransform="matrix(0.3823536,7.5555777e-8,-1.8372241e-8,0.1115198,-5.9254271,36.335849)" gradientUnits="userSpaceOnUse" xlink:href="#linearGradient3820-7-2"/><linearGradient id="linearGradient4131" x1="24" x2="24" y1="22" y2="26" gradientTransform="translate(8.0000046,8.0000026)" gradientUnits="userSpaceOnUse" xlink:href="#linearGradient3957"/><linearGradient id="linearGradient4137" x1="21.014" x2="22.806" y1="25.434" y2="27.344" gradientTransform="matrix(1.4390244,0,0,1.4390244,-2.536585,-2.5365857)" gradientUnits="userSpaceOnUse" xlink:href="#linearGradient3957-2"/><linearGradient id="linearGradient4140" x1="27.925" x2="33.448" y1="15.149" y2="22.986" gradientTransform="matrix(1.4390244,0,0,1.4390244,-2.536585,-2.5365857)" gradientUnits="userSpaceOnUse" xlink:href="#linearGradient4168"/><radialGradient id="radialGradient4145" cx="3.972" cy="8.45" r="20" fx="3.972" fy="8.45" gradientTransform="matrix(0,3.5958841,-3.8040162,-9.7874431e-8,64.14322,-20.064576)" gradientUnits="userSpaceOnUse" xlink:href="#linearGradient3907"/><radialGradient id="radialGradient4192" cx="99.189" cy="185.297" r="62.769" fx="99.189" fy="185.297" gradientTransform="matrix(0.2549024,5.3967361e-8,-1.2248161e-8,0.07965545,6.7163816,44.240666)" gradientUnits="userSpaceOnUse" xlink:href="#linearGradient3820-7-2"/><linearGradient id="linearGradient3217" x1="71.204" x2="71.204" y1="6.238" y2="44.341" gradientTransform="matrix(1.3243246,0,0,1.3243246,4.8803675,12.801774)" gradientUnits="userSpaceOnUse" xlink:href="#linearGradient4011-0"/><linearGradient id="linearGradient4011-0"><stop id="stop4013-9" offset="0" stop-color="#fff" stop-opacity="1"/><stop id="stop4015-9" offset=".508" stop-color="#fff" stop-opacity=".235"/><stop id="stop4017-0" offset=".835" stop-color="#fff" stop-opacity=".157"/><stop id="stop4019-81" offset="1" stop-color="#fff" stop-opacity=".392"/></linearGradient><linearGradient id="linearGradient3163" x1="30.271" x2="30.271" y1="10.029" y2="55.053" gradientTransform="matrix(0.84292897,0,0,1.5343737,144.92688,-42.641562)" gradientUnits="userSpaceOnUse" xlink:href="#linearGradient27416-1-2-0-1"/><linearGradient id="linearGradient27416-1-2-0-1"><stop id="stop27420-2-0-8-7" offset="0" stop-color="#55c1ec" stop-opacity="1"/><stop id="stop27422-3-5-3-3" offset="1" stop-color="#3689e6" stop-opacity="1"/></linearGradient><radialGradient id="radialGradient3300-6" cx="99.189" cy="185.297" r="62.769" fx="99.189" fy="185.297" gradientTransform="matrix(0.3823536,7.5555777e-8,-1.8372241e-8,0.1115198,-5.9254271,36.335849)" gradientUnits="userSpaceOnUse" xlink:href="#linearGradient3820-7-2"/><linearGradient id="linearGradient3209" x1="71.204" x2="71.204" y1="6.238" y2="44.341" gradientTransform="matrix(1.3243242,0,0,1.3243242,-7.670749,-10.886325)" gradientUnits="userSpaceOnUse" xlink:href="#linearGradient4011-0"/><linearGradient id="linearGradient3198" x1="24" x2="24" y1="14" y2="33" gradientTransform="matrix(1.3333337,0,0,1.3636363,-1.57e-4,-0.72727)" gradientUnits="userSpaceOnUse" xlink:href="#linearGradient3881"/><linearGradient id="linearGradient3881"><stop id="stop3883" offset="0" stop-color="#2d2d2d" stop-opacity="1"/><stop id="stop3885" offset="1" stop-color="#3f3f3f" stop-opacity="1"/></linearGradient><linearGradient id="linearGradient3202" x1="71.204" x2="71.204" y1="6.238" y2="44.341" gradientTransform="matrix(0.62162177,0,0,-0.62162177,-12.591258,47.762613)" gradientUnits="userSpaceOnUse" xlink:href="#linearGradient4011-0"/><linearGradient id="linearGradient3205" x1="71.204" x2="71.204" y1="6.238" y2="44.341" gradientTransform="matrix(1.0540541,0,0,-1.0540541,11.716682,49.422782)" gradientUnits="userSpaceOnUse" xlink:href="#linearGradient4011-0"/><clipPath id="clipPath3865" clipPathUnits="userSpaceOnUse"><path id="path3867" fill="#000" fill-opacity="1" stroke="none" d="m 32,24 a 8,8 0 1 1 -16,0 8,8 0 1 1 16,0 z" opacity=".2"/></clipPath><linearGradient id="linearGradient3214" x1="9" x2="37" y1="23" y2="23" gradientTransform="matrix(0,1.3571428,-1.3571428,0,118.54198,-8.5194048)" gradientUnits="userSpaceOnUse" xlink:href="#outerBackgroundGradient-0"/><linearGradient id="outerBackgroundGradient-0"><stop id="stop3864-8-6-3" offset="0" stop-color="#c3c3c3" stop-opacity="1"/><stop id="stop3866-9-1-7" offset="1" stop-color="#ebebeb" stop-opacity="1"/></linearGradient><linearGradient id="linearGradient3217-5" x1="9" x2="37" y1="23" y2="23" gradientTransform="matrix(0,1.8214283,-1.8214283,0,129.22054,-19.19797)" gradientUnits="userSpaceOnUse" xlink:href="#linearGradient3907"/><linearGradient id="linearGradient3907"><stop id="stop3909" offset="0" stop-color="#fff" stop-opacity="1"/><stop id="stop3911" offset="1" stop-color="#b6b6b6" stop-opacity="1"/></linearGradient><radialGradient id="radialGradient3300-0" cx="99.189" cy="185.297" r="62.769" fx="99.189" fy="185.297" gradientTransform="matrix(0.3823536,7.5555777e-8,-1.8372241e-8,0.1115198,-5.9254271,36.335849)" gradientUnits="userSpaceOnUse" xlink:href="#linearGradient3820-7-2"/></defs><metadata id="metadata3494"/><g id="g4198"><path id="path3818-0" fill="url(#radialGradient3300)" fill-opacity="1" stroke="none" d="m 55.999998,57.0017 a 24,6.9985714 0 1 1 -47.9999991,0 24,6.9985714 0 1 1 47.9999991,0 z" opacity=".2"/><path id="path4190" fill="url(#radialGradient4192)" fill-opacity="1" stroke="none" d="m 47.999998,59.0017 a 16,4.9988822 0 1 1 -31.999999,0 16,4.9988822 0 1 1 31.999999,0 z" opacity=".4"/></g><path d="M 32.000004,2.4999968 C 15.722922,2.4999968 2.5,15.722913 2.5,31.999997 2.5,48.277081 15.722922,61.500004 32.000004,61.5 48.27708,61.5 61.500016,48.277081 61.5,31.999997 61.5,15.722913 48.27708,2.4999968 32.000004,2.4999968 z" style="marker:none" id="path2555" fill="url(#radialGradient4145)" fill-opacity="1" fill-rule="nonzero" stroke="none" stroke-width="1" color="#000" display="inline" enable-background="accumulate" overflow="visible" visibility="visible"/><path id="path2555-7-1" fill="none" fill-opacity="0" fill-rule="nonzero" stroke="#000" stroke-dasharray="none" stroke-dashoffset="0" stroke-linecap="round" stroke-linejoin="round" stroke-miterlimit="4" stroke-opacity="1" stroke-width="1" d="m 32,2.499999 c -16.277082,0 -29.5,13.222915 -29.5,29.499998 0,16.277083 13.222918,29.500005 29.5,29.5 16.27708,0 29.50001,-13.222917 29.5,-29.5 C 61.5,15.722914 48.27708,2.499999 32,2.499999 z" color="#000" display="inline" enable-background="accumulate" opacity=".3" overflow="visible" visibility="visible" style="marker:none"/><path id="path3019" fill="none" stroke="url(#linearGradient3293)" stroke-dasharray="none" stroke-dashoffset="0" stroke-linecap="round" stroke-linejoin="round" stroke-miterlimit="4" stroke-opacity="1" stroke-width="1" d="m 60.50001,31.999999 c 0,15.740115 -12.7599,28.499999 -28.50002,28.499999 -15.740099,0 -28.499991,-12.759884 -28.499991,-28.499999 0,-15.740116 12.759892,-28.5000013 28.499991,-28.5000013 15.74012,0 28.50002,12.7598853 28.50002,28.5000013 z" color="#000" display="inline" enable-background="accumulate" opacity=".5" overflow="visible" visibility="visible" style="marker:none"/><g id="g4488" transform="matrix(1.1538461,0,0,1.1538461,-68.762709,5.8135983)"><path id="path3824" fill="url(#linearGradient3214)" fill-opacity="1" fill-rule="nonzero" stroke="none" d="m 87.328367,3.6948823 c -10.493754,0 -19.000679,8.5072157 -19.000679,18.9997597 0,10.493505 8.507018,19.000238 19.000679,19.000238 10.49326,0 18.999323,-8.506733 18.999323,-19.000238 0,-10.492544 -8.506063,-18.9997597 -18.999323,-18.9997597 l 0,0 z"/><path id="path8655-1" fill="none" stroke="url(#linearGradient3205)" stroke-dasharray="none" stroke-dashoffset="0" stroke-linecap="round" stroke-linejoin="round" stroke-miterlimit="4" stroke-opacity="1" stroke-width=".867" d="m 106.82769,22.695572 c 0,-10.769901 -8.731101,-19.5006917 -19.499752,-19.5006917 -10.769651,0 -19.50025,8.7308897 -19.50025,19.5006917 0,10.769403 8.730599,19.499309 19.50025,19.499309 10.768651,0 19.499752,-8.729906 19.499752,-19.499309 l 0,0 z" color="#000" display="inline" enable-background="accumulate" overflow="visible" visibility="visible" style="marker:none"/></g><g id="g4492" transform="matrix(1.173913,0,0,1.173913,-5.5650457,-5.5652176)"><path id="path3857" fill="#000" fill-opacity="1" stroke="none" d="m 42.999855,32 c 0,6.075136 -4.924868,10.999995 -11,10.999995 -6.075132,0 -11,-4.924859 -11,-10.999995 0,-6.075136 4.924868,-10.999995 11,-10.999995 6.075132,0 11,4.924859 11,10.999995 z" opacity=".1"/><path id="path3859" fill="none" stroke="#000" stroke-dasharray="none" stroke-miterlimit="4" stroke-opacity="1" stroke-width="1.241" d="m 32,24 c 0,4.418281 -3.581722,7.999997 -8,7.999997 -4.418278,0 -8,-3.581716 -8,-7.999997 0,-4.418281 3.581722,-7.999997 8,-7.999997 4.418278,0 8,3.581716 8,7.999997 z" clip-path="url(#clipPath3865)" opacity=".1" transform="matrix(1.3726093,0,0,1.3726093,-0.942768,-0.942623)"/><path id="path8655-1-6" fill="none" stroke="url(#linearGradient3202)" stroke-dasharray="none" stroke-dashoffset="0" stroke-linecap="round" stroke-linejoin="round" stroke-miterlimit="4" stroke-opacity="1" stroke-width=".852" d="m 43.499855,32.000408 c 0,-6.35148 -5.149107,-11.500411 -11.499855,-11.500411 -6.351328,0 -11.500145,5.148988 -11.500145,11.500411 0,6.351188 5.148817,11.499595 11.500145,11.499595 6.350748,0 11.499855,-5.148407 11.499855,-11.499595 z" color="#000" display="inline" enable-background="accumulate" opacity=".5" overflow="visible" visibility="visible" style="marker:none"/></g><path id="rect3030-23" fill="#fff" fill-opacity="1" fill-rule="nonzero" stroke="none" d="m 27.999855,16 8,0 0,18.250001 -2.66667,2.5 2.66667,2.5 0,10.749999 -8,0 0,-18.249999 2.66666,-2.5 -2.66666,-2.5 z" color="#000" display="inline" enable-background="accumulate" opacity=".5" overflow="visible" visibility="visible" style="marker:none"/><path id="rect3030" fill="url(#linearGradient3198)" fill-opacity="1" stroke="none" d="m 27.999855,15 8,0 0,18.250001 -2.66667,2.5 2.66667,2.5 0,10.749999 -8,0 0,-18.249999 2.66666,-2.5 -2.66666,-2.5 z"/><path id="rect3030-2" fill="none" stroke="#000" stroke-opacity="1" stroke-width="1" d="m 28.499855,15.500001 7,0 0,17.531504 -2.90854,2.72958 2.90854,2.724609 0,10.014308 -7,0 0,-17.520743 2.915233,-2.729579 -2.915233,-2.735371 z" opacity=".3"/></svg>