<svg xmlns="http://www.w3.org/2000/svg" xmlns:svg="http://www.w3.org/2000/svg" xmlns:xlink="http://www.w3.org/1999/xlink" id="svg3489" width="64" height="64" version="1.1"><defs id="defs3491"><linearGradient id="linearGradient4806"><stop id="stop4808" offset="0" stop-color="#fff" stop-opacity="1"/><stop id="stop4810" offset=".424" stop-color="#fff" stop-opacity=".235"/><stop id="stop4812" offset=".821" stop-color="#fff" stop-opacity=".157"/><stop id="stop4814" offset="1" stop-color="#fff" stop-opacity=".392"/></linearGradient><linearGradient id="linearGradient3820-7-2"><stop id="stop3822-2-6" offset="0" stop-color="#000" stop-opacity="1"/><stop id="stop3824-1-2" offset="1" stop-color="#000" stop-opacity="0"/></linearGradient><linearGradient id="linearGradient3957-2"><stop id="stop3959-62" offset="0" stop-color="#fff" stop-opacity="1"/><stop id="stop3961-5" offset="1" stop-color="#c1c1c1" stop-opacity="1"/></linearGradient><linearGradient id="linearGradient2867-449-88-871-390-598-476-591-434-148-57-177-3-8"><stop id="stop3750-8-9" offset="0" stop-color="#90dbec" stop-opacity="1"/><stop id="stop3752-3-2" offset=".262" stop-color="#42baea" stop-opacity="1"/><stop id="stop3754-7-2" offset=".705" stop-color="#3689e6" stop-opacity="1"/><stop id="stop3756-9-3" offset="1" stop-color="#2b63a0" stop-opacity="1"/></linearGradient><linearGradient id="linearGradient3957"><stop id="stop3959" offset="0" stop-color="#fff" stop-opacity="1"/><stop id="stop3961" offset="1" stop-color="#c1c1c1" stop-opacity="1"/></linearGradient><linearGradient id="linearGradient4168"><stop id="stop4170" offset="0" stop-color="#f8b17e" stop-opacity="1"/><stop id="stop4172" offset=".232" stop-color="#e35d4f" stop-opacity="1"/><stop id="stop4174" offset=".591" stop-color="#c6262e" stop-opacity="1"/><stop id="stop4176" offset="1" stop-color="#690b54" stop-opacity="1"/></linearGradient><linearGradient id="linearGradient3293" x1="71.204" x2="71.204" y1="15.369" y2="40.496" gradientTransform="matrix(2.3268746,0,0,2.3268746,-135.94475,-32.842783)" gradientUnits="userSpaceOnUse" xlink:href="#linearGradient4806"/><radialGradient id="radialGradient3300" cx="99.189" cy="185.297" r="62.769" fx="99.189" fy="185.297" gradientTransform="matrix(0.3823536,7.5555777e-8,-1.8372241e-8,0.1115198,-5.9254271,36.335849)" gradientUnits="userSpaceOnUse" xlink:href="#linearGradient3820-7-2"/><linearGradient id="linearGradient4131" x1="24" x2="24" y1="22" y2="26" gradientTransform="translate(8.0000046,8.0000026)" gradientUnits="userSpaceOnUse" xlink:href="#linearGradient3957"/><linearGradient id="linearGradient4137" x1="21.014" x2="22.806" y1="25.434" y2="27.344" gradientTransform="matrix(1.4390244,0,0,1.4390244,-2.536585,-2.5365857)" gradientUnits="userSpaceOnUse" xlink:href="#linearGradient3957-2"/><linearGradient id="linearGradient4140" x1="27.925" x2="33.448" y1="15.149" y2="22.986" gradientTransform="matrix(1.4390244,0,0,1.4390244,-2.536585,-2.5365857)" gradientUnits="userSpaceOnUse" xlink:href="#linearGradient4168"/><radialGradient id="radialGradient4145" cx="3.972" cy="8.45" r="20" fx="3.972" fy="8.45" gradientTransform="matrix(0,3.5958841,-3.8040162,-9.7874431e-8,64.14322,-20.064576)" gradientUnits="userSpaceOnUse" xlink:href="#linearGradient2867-449-88-871-390-598-476-591-434-148-57-177-3-8"/><radialGradient id="radialGradient4192" cx="99.189" cy="185.297" r="62.769" fx="99.189" fy="185.297" gradientTransform="matrix(0.2549024,5.3967361e-8,-1.2248161e-8,0.07965545,6.7163816,44.240666)" gradientUnits="userSpaceOnUse" xlink:href="#linearGradient3820-7-2"/></defs><metadata id="metadata3494"/><g id="g4198"><path id="path3818-0" fill="url(#radialGradient3300)" fill-opacity="1" stroke="none" d="m 55.999998,57.0017 a 24,6.9985714 0 1 1 -47.9999991,0 24,6.9985714 0 1 1 47.9999991,0 z" opacity=".2"/><path id="path4190" fill="url(#radialGradient4192)" fill-opacity="1" stroke="none" d="m 47.999998,59.0017 a 16,4.9988822 0 1 1 -31.999999,0 16,4.9988822 0 1 1 31.999999,0 z" opacity=".4"/></g><path d="M 32.000004,2.4999968 C 15.722922,2.4999968 2.5,15.722913 2.5,31.999997 2.5,48.277081 15.722922,61.500004 32.000004,61.5 48.27708,61.5 61.500016,48.277081 61.5,31.999997 61.5,15.722913 48.27708,2.4999968 32.000004,2.4999968 z" style="marker:none" id="path2555" fill="url(#radialGradient4145)" fill-opacity="1" fill-rule="nonzero" stroke="none" stroke-width="1" color="#000" display="inline" enable-background="accumulate" overflow="visible" visibility="visible"/><path id="path2555-7-1" fill="#000" fill-opacity="0" fill-rule="nonzero" stroke="#00537d" stroke-dasharray="none" stroke-dashoffset="0" stroke-linecap="round" stroke-linejoin="round" stroke-miterlimit="4" stroke-opacity="1" stroke-width="1" d="m 32,2.499999 c -16.277082,0 -29.5,13.222915 -29.5,29.499998 0,16.277083 13.222918,29.500005 29.5,29.5 16.27708,0 29.50001,-13.222917 29.5,-29.5 C 61.5,15.722914 48.27708,2.499999 32,2.499999 z" color="#000" display="inline" enable-background="accumulate" opacity=".5" overflow="visible" visibility="visible" style="marker:none"/><path id="path3019" fill="none" stroke="url(#linearGradient3293)" stroke-dasharray="none" stroke-dashoffset="0" stroke-linecap="round" stroke-linejoin="round" stroke-miterlimit="4" stroke-opacity="1" stroke-width="1" d="m 60.50001,31.999999 c 0,15.740115 -12.7599,28.499999 -28.50002,28.499999 -15.740099,0 -28.499991,-12.759884 -28.499991,-28.499999 0,-15.740116 12.759892,-28.5000013 28.499991,-28.5000013 15.74012,0 28.50002,12.7598853 28.50002,28.5000013 z" color="#000" display="inline" enable-background="accumulate" opacity=".5" overflow="visible" visibility="visible" style="marker:none"/><g id="g4818" transform="matrix(1.0834516,0,0,1.0834516,-2.9573052,-5.6791502)"><path id="path3211" fill="#000" fill-opacity="1" fill-rule="nonzero" stroke="none" stroke-width="1" d="m 35.25,17.03125 c -2.032059,-0.05682 -3.546109,1.539343 -4.0625,3.25 -0.26229,0.868893 -0.28544,1.800629 0,2.6875 0.28544,0.886871 0.933242,1.702485 1.90625,2.15625 a 0.96744573,0.96744573 0 0 0 0.03125,0.03125 c 3.119306,1.2852 6.397414,-1.802418 5.71875,-5 l 0.03125,0 c -0.0034,-0.02408 -0.02737,-0.03855 -0.03125,-0.0625 -0.0015,-0.0094 0.0016,-0.02185 0,-0.03125 l -0.03125,0 c -0.293045,-1.679774 -1.712295,-3.04079 -3.46875,-3.03125 -0.03177,1.73e-4 -0.06179,-0.0011 -0.09375,0 z m -1.21875,11.0625 c -0.79557,-0.06567 -1.620505,0.241266 -2.375,0.8125 l 0.03125,0.03125 c -3.113755,1.408053 -5.68958,3.52746 -8.25,5.40625 a 0.96744573,0.96744573 0 0 0 -0.34375,1.125 c 0.176423,0.481827 0.274642,0.991713 0.90625,1.46875 0.315804,0.238518 0.890872,0.345045 1.3125,0.1875 0.296511,-0.110794 0.462729,-0.328028 0.65625,-0.53125 L 26,36.625 c 0.624104,-0.37305 1.636132,-1.13768 2.375,-1.46875 0.09191,-0.04118 0.02096,-0.04393 0.09375,-0.0625 -1.033326,4.545806 -2.271892,9.090987 -3.25,13.71875 -0.01254,0.03133 0.01176,0.06238 0,0.09375 -0.0068,0.03232 -0.02447,0.06142 -0.03125,0.09375 -0.5453,1.561724 -0.165999,3.176899 0.875,4.125 1.039693,0.946912 2.71065,1.093077 4.1875,0.1875 l 0.03125,0.03125 c 0.05747,-0.0238 0.0992,-0.06937 0.15625,-0.09375 2.694783,-1.151678 4.944882,-2.943323 7.15625,-4.5 a 0.96744573,0.96744573 0 0 0 0.34375,-1.15625 c -0.12385,-0.305146 -0.173462,-0.760455 -0.625,-1.3125 -0.225769,-0.276023 -0.800378,-0.599781 -1.3125,-0.5 -0.359853,0.07011 -0.535017,0.293778 -0.75,0.5 l 0,-0.03125 c -0.846452,0.385978 -1.6472,1.094392 -2.3125,1.4375 -0.175025,0.09026 -0.184648,0.06755 -0.28125,0.09375 0.9405,-4.76523 2.546774,-9.476877 3.65625,-14.375 0.01463,-0.06461 0.04806,-0.122825 0.0625,-0.1875 0.417985,-1.057536 0.422436,-2.176242 0.0625,-3.125 -0.381178,-1.004753 -1.229352,-1.902854 -2.40625,-2 z" color="#000" display="inline" enable-background="accumulate" font-family="URW Palladio L" font-size="40" font-stretch="normal" font-style="normal" font-variant="normal" font-weight="bold" opacity=".05" overflow="visible" text-anchor="start" visibility="visible" writing-mode="lr-tb" style="line-height:100%;-inkscape-font-specification:'URW Palladio L Bold';text-align:start;marker:none"/><path id="path3227" fill="#000" fill-opacity="1" fill-rule="nonzero" stroke="none" stroke-width="1" d="m 24,35.128279 c 0.333093,0.909705 0.708013,1.647091 1.506631,0.638817 0.990111,-0.591826 4.307599,-3.185982 3.975644,-0.644949 -1.062259,4.702032 -2.355262,9.354616 -3.343911,14.07113 -1.033771,2.582505 1.313722,4.918491 3.764678,3.239074 2.605206,-1.07896 4.84698,-2.836401 7.137204,-4.448588 -0.312485,-0.769914 -0.520762,-1.875887 -1.384192,-0.869017 -1.133728,0.516974 -3.609914,2.95432 -4.069945,0.944056 0.952321,-5.091449 2.716758,-9.994424 3.844616,-15.045279 1.037921,-2.322371 -0.657209,-5.256771 -3.194626,-3.335676 C 29.19621,31.007968 26.654065,33.180774 24,35.128279 Z m 11.28201,-17.12429 c -3.101587,-0.165363 -4.723204,4.857705 -1.775786,6.232241 2.391218,0.985217 4.994826,-1.478675 4.410661,-3.940669 -0.181287,-1.281981 -1.32694,-2.334696 -2.634874,-2.291572 l -10e-7,0 z" color="#000" display="inline" enable-background="accumulate" font-family="URW Palladio L" font-size="40" font-stretch="normal" font-style="normal" font-variant="normal" font-weight="bold" opacity=".15" overflow="visible" text-anchor="start" visibility="visible" writing-mode="lr-tb" style="line-height:100%;-inkscape-font-specification:'URW Palladio L Bold';text-align:start;marker:none"/><path font-stretch="normal" style="line-height:100%;-inkscape-font-specification:'URW Palladio L Bold';text-align:start" id="path3536" fill="#fff" fill-opacity="1" stroke="none" d="m 24,34.128279 c 0.333093,0.909705 0.708013,1.647091 1.506631,0.638817 0.990111,-0.591826 4.307599,-3.185982 3.975644,-0.644949 -1.062259,4.702032 -2.355262,9.354616 -3.343911,14.07113 -1.033771,2.582505 1.313722,4.918491 3.764678,3.239074 2.605206,-1.07896 4.84698,-2.836401 7.137204,-4.448588 -0.312485,-0.769914 -0.520762,-1.875887 -1.384192,-0.869017 -1.133728,0.516974 -3.609914,2.95432 -4.069945,0.944056 0.952321,-5.091449 2.716758,-9.994424 3.844616,-15.045279 1.037921,-2.322371 -0.657209,-5.256771 -3.194626,-3.335676 C 29.19621,30.007968 26.654065,32.180774 24,34.128279 Z m 11.28201,-17.12429 c -3.101587,-0.165363 -4.723204,4.857705 -1.775786,6.232241 2.391218,0.985217 4.994826,-1.478675 4.410661,-3.940669 -0.181287,-1.281981 -1.32694,-2.334696 -2.634874,-2.291572 l -10e-7,0 z" font-family="URW Palladio L" font-size="40" font-style="normal" font-variant="normal" font-weight="bold" text-anchor="start" writing-mode="lr-tb"/></g></svg>
