<svg xmlns="http://www.w3.org/2000/svg" xmlns:svg="http://www.w3.org/2000/svg" xmlns:xlink="http://www.w3.org/1999/xlink" id="svg3489" width="64" height="64" version="1.1"><defs id="defs3491"><linearGradient id="linearGradient4806"><stop id="stop4808" offset="0" stop-color="#fff" stop-opacity="1"/><stop id="stop4810" offset=".424" stop-color="#fff" stop-opacity=".235"/><stop id="stop4812" offset=".821" stop-color="#fff" stop-opacity=".157"/><stop id="stop4814" offset="1" stop-color="#fff" stop-opacity=".392"/></linearGradient><linearGradient id="linearGradient3820-7-2"><stop id="stop3822-2-6" offset="0" stop-color="#000" stop-opacity="1"/><stop id="stop3824-1-2" offset="1" stop-color="#000" stop-opacity="0"/></linearGradient><linearGradient id="linearGradient4168"><stop id="stop4170" offset="0" stop-color="#f8b17e" stop-opacity="1"/><stop id="stop4172" offset=".232" stop-color="#e35d4f" stop-opacity="1"/><stop id="stop4174" offset=".591" stop-color="#c6262e" stop-opacity="1"/><stop id="stop4176" offset="1" stop-color="#690b54" stop-opacity="1"/></linearGradient><linearGradient id="linearGradient3293" x1="71.204" x2="71.204" y1="15.369" y2="40.496" gradientTransform="matrix(2.3268746,0,0,2.3268746,-135.94475,-32.842783)" gradientUnits="userSpaceOnUse" xlink:href="#linearGradient4806"/><radialGradient id="radialGradient3300" cx="99.189" cy="185.297" r="62.769" fx="99.189" fy="185.297" gradientTransform="matrix(0.3823536,7.5555777e-8,-1.8372241e-8,0.1115198,-5.9254271,36.335849)" gradientUnits="userSpaceOnUse" xlink:href="#linearGradient3820-7-2"/><radialGradient id="radialGradient4145" cx="5.202" cy="8.45" r="20" fx="5.202" fy="8.45" gradientTransform="matrix(-8.4508511e-6,3.8890437,-3.8040162,-8.371941e-6,64.143254,-21.229006)" gradientUnits="userSpaceOnUse" xlink:href="#linearGradient4168"/><radialGradient id="radialGradient4192" cx="99.189" cy="185.297" r="62.769" fx="99.189" fy="185.297" gradientTransform="matrix(0.2549024,5.3967361e-8,-1.2248161e-8,0.07965545,6.7163816,44.240666)" gradientUnits="userSpaceOnUse" xlink:href="#linearGradient3820-7-2"/></defs><metadata id="metadata3494"/><g id="g4198"><path id="path3818-0" fill="url(#radialGradient3300)" fill-opacity="1" stroke="none" d="m 55.999998,57.0017 a 24,6.9985714 0 1 1 -47.9999991,0 24,6.9985714 0 1 1 47.9999991,0 z" opacity=".2"/><path id="path4190" fill="url(#radialGradient4192)" fill-opacity="1" stroke="none" d="m 47.999998,59.0017 a 16,4.9988822 0 1 1 -31.999999,0 16,4.9988822 0 1 1 31.999999,0 z" opacity=".4"/></g><path id="path2555" fill="url(#radialGradient4145)" fill-opacity="1" fill-rule="nonzero" stroke="none" stroke-width="1" d="M 32.000004,2.4999984 C 15.722922,2.4999984 2.5,15.722915 2.5,31.999999 2.5,48.277083 15.722922,61.500006 32.000004,61.500002 48.27708,61.500002 61.500016,48.277083 61.5,31.999999 61.5,15.722915 48.27708,2.4999984 32.000004,2.4999984 Z" color="#000" display="inline" enable-background="accumulate" overflow="visible" visibility="visible" style="marker:none"/><path id="path2555-7-1" fill="#000" fill-opacity="0" fill-rule="nonzero" stroke="#6f0000" stroke-dasharray="none" stroke-dashoffset="0" stroke-linecap="round" stroke-linejoin="round" stroke-miterlimit="4" stroke-opacity="1" stroke-width="1" d="m 32,2.499999 c -16.277082,0 -29.5,13.222915 -29.5,29.499998 0,16.277083 13.222918,29.500005 29.5,29.5 16.27708,0 29.50001,-13.222917 29.5,-29.5 C 61.5,15.722914 48.27708,2.499999 32,2.499999 Z" color="#000" display="inline" enable-background="accumulate" opacity=".5" overflow="visible" visibility="visible" style="marker:none"/><path id="path3019" fill="none" stroke="url(#linearGradient3293)" stroke-dasharray="none" stroke-dashoffset="0" stroke-linecap="round" stroke-linejoin="round" stroke-miterlimit="4" stroke-opacity="1" stroke-width="1" d="m 60.50001,31.999999 c 0,15.740115 -12.7599,28.499999 -28.50002,28.499999 -15.740099,0 -28.499991,-12.759884 -28.499991,-28.499999 0,-15.740116 12.759892,-28.5000013 28.499991,-28.5000013 15.74012,0 28.50002,12.7598853 28.50002,28.5000013 z" color="#000" display="inline" enable-background="accumulate" opacity=".5" overflow="visible" visibility="visible" style="marker:none"/><path id="path4167" fill="#000" fill-opacity="1" stroke="#000" stroke-dasharray="none" stroke-linejoin="round" stroke-miterlimit="4" stroke-opacity="1" stroke-width="2" d="m 32,13 c -2.209138,0 -4,1.790862 -4,4 0,3.999999 1.333334,13.333333 2.666666,24.000001 l 2.666668,0 C 34.666666,30.333333 36,20.999999 36,17 36,14.790862 34.209138,13 32,13 Z m 0,32.000001 c -2.209138,0 -4,1.790862 -4,4 0,2.209138 1.790862,4 4,4 2.209138,0 4,-1.790862 4,-4 0,-2.209138 -1.790862,-4 -4,-4 z" opacity=".05"/><path id="path4165" fill="#000" fill-opacity="1" stroke="none" stroke-dasharray="none" stroke-linejoin="round" stroke-miterlimit="4" stroke-opacity=".498" stroke-width="1" d="m 32,13 c -2.209138,0 -4,1.790862 -4,4 0,3.999999 1.333334,13.333333 2.666666,24.000001 l 2.666668,0 C 34.666666,30.333333 36,20.999999 36,17 36,14.790862 34.209138,13 32,13 Z m 0,32.000001 c -2.209138,0 -4,1.790862 -4,4 0,2.209138 1.790862,4 4,4 2.209138,0 4,-1.790862 4,-4 0,-2.209138 -1.790862,-4 -4,-4 z" opacity=".15"/><path id="path4159-3" fill="#fff" fill-opacity="1" stroke="none" stroke-dasharray="none" stroke-linejoin="round" stroke-miterlimit="4" stroke-opacity=".498" stroke-width="1" d="m 32,12 c -2.209138,0 -4,1.790862 -4,4 0,3.999999 1.333334,13.333333 2.666666,24.000001 l 2.666668,0 C 34.666666,29.333333 36,19.999999 36,16 36,13.790862 34.209138,12 32,12 Z m 0,32.000001 c -2.209138,0 -4,1.790862 -4,4 0,2.209138 1.790862,4 4,4 2.209138,0 4,-1.790862 4,-4 0,-2.209138 -1.790862,-4 -4,-4 z" opacity="1"/></svg>