<svg xmlns="http://www.w3.org/2000/svg" xmlns:svg="http://www.w3.org/2000/svg" xmlns:xlink="http://www.w3.org/1999/xlink" id="svg4057" width="64" height="64" version="1.1"><defs id="defs4059"><linearGradient id="linearGradient3856-1-6-5"><stop id="stop3858-0-6-4" offset="0" stop-color="#634215" stop-opacity="1"/><stop id="stop3860-2-8-2" offset="1" stop-color="#93700d" stop-opacity="1"/></linearGradient><linearGradient id="linearGradient3101" x1="29.127" x2="29.291" y1="19.788" y2="57.567" gradientTransform="matrix(1.4071472,0,-0.00612526,1.4642082,-8.86438,-25.13171)" gradientUnits="userSpaceOnUse" xlink:href="#linearGradient3117"/><linearGradient id="linearGradient3117"><stop id="stop3119" offset="0" stop-color="#fff" stop-opacity="1"/><stop id="stop3121" offset=".569" stop-color="#fff" stop-opacity=".235"/><stop id="stop3123" offset=".933" stop-color="#fff" stop-opacity=".157"/><stop id="stop3125" offset="1" stop-color="#fff" stop-opacity=".392"/></linearGradient><linearGradient id="linearGradient3104" x1="24" x2="24" y1="-14.604" y2="54.67" gradientTransform="matrix(1.3111652,0,0,1.3023893,0.53203,1.4798)" gradientUnits="userSpaceOnUse" xlink:href="#linearGradient3846"/><linearGradient id="linearGradient3846"><stop id="stop3848" offset="0" stop-color="#fff3cb" stop-opacity="1"/><stop id="stop3850" offset=".262" stop-color="#fdde76" stop-opacity="1"/><stop id="stop3852" offset=".661" stop-color="#f9c440" stop-opacity="1"/><stop id="stop3854" offset="1" stop-color="#e48b20" stop-opacity="1"/></linearGradient><radialGradient id="radialGradient3109" cx="605.714" cy="486.648" r="117.143" fx="605.714" fy="486.648" gradientTransform="matrix(0.03212956,0,0,0.02058823,38.63678,49.45143)" gradientUnits="userSpaceOnUse" xlink:href="#linearGradient5060"/><linearGradient id="linearGradient5060"><stop id="stop5062" offset="0" stop-color="#000" stop-opacity="1"/><stop id="stop5064" offset="1" stop-color="#000" stop-opacity="0"/></linearGradient><radialGradient id="radialGradient3112" cx="605.714" cy="486.648" r="117.143" fx="605.714" fy="486.648" gradientTransform="matrix(-0.03212956,0,0,0.02058823,25.36322,49.45143)" gradientUnits="userSpaceOnUse" xlink:href="#linearGradient5060"/><linearGradient id="linearGradient5048"><stop id="stop5050" offset="0" stop-color="#000" stop-opacity="0"/><stop id="stop5056" offset=".5" stop-color="#000" stop-opacity="1"/><stop id="stop5052" offset="1" stop-color="#000" stop-opacity="0"/></linearGradient><linearGradient id="linearGradient4055" x1="302.857" x2="302.857" y1="366.648" y2="609.505" gradientTransform="matrix(0.10769232,0,0,0.02058823,-6.92308,49.45143)" gradientUnits="userSpaceOnUse" xlink:href="#linearGradient5048"/><linearGradient id="linearGradient4236" x1="16" x2="16" y1="28" y2="5.486" gradientTransform="scale(2,2)" gradientUnits="userSpaceOnUse" xlink:href="#linearGradient3856-1-6-5"/><clipPath id="clipPath4207" clipPathUnits="userSpaceOnUse"><path id="path4209" fill="url(#linearGradient4211)" fill-opacity="1" stroke="none" stroke-dasharray="none" stroke-linejoin="round" stroke-miterlimit="4" stroke-opacity=".498" stroke-width="1" d="m 32,18 c -2.209138,0 -4,1.790862 -4,4 0,4 1.333334,9.333334 2.666666,20 l 2.666668,0 C 34.666666,31.333334 36,26 36,22 36,19.790862 34.209138,18 32,18 Z m 0,28 c -2.209138,0 -4,1.790862 -4,4 0,2.209138 1.790862,4 4,4 2.209138,0 4,-1.790862 4,-4 0,-2.209138 -1.790862,-4 -4,-4 z" opacity="1"/></clipPath><linearGradient id="linearGradient4211" x1="16" x2="16" y1="28" y2="5.486" gradientTransform="scale(2,2)" gradientUnits="userSpaceOnUse" xlink:href="#linearGradient3856-1-6-5"/></defs><metadata id="metadata4062"/><rect id="rect2879" width="52" height="5" x="6" y="57" fill="url(#linearGradient4055)" fill-opacity="1" fill-rule="nonzero" stroke="none" stroke-width="1" display="inline" opacity=".3" overflow="visible" visibility="visible" style="marker:none"/><path id="path2881" fill="url(#radialGradient3112)" fill-opacity="1" fill-rule="nonzero" stroke="none" stroke-width="1" d="m 6,57.00023 c 0,0 0,4.9997 0,4.9997 -1.65459,0.01 -4,-1.1202 -4,-2.5002 0,-1.38 1.8464,-2.4995 4,-2.4995 z" display="inline" opacity=".3" overflow="visible" visibility="visible" style="marker:none"/><path id="path2883" fill="url(#radialGradient3109)" fill-opacity="1" fill-rule="nonzero" stroke="none" stroke-width="1" d="m 58,57.00023 c 0,0 0,4.9997 0,4.9997 1.65459,0.01 4,-1.1202 4,-2.5002 0,-1.38 -1.8464,-2.4995 -4,-2.4995 z" display="inline" opacity=".3" overflow="visible" visibility="visible" style="marker:none"/><path id="path11155" fill="url(#linearGradient3104)" fill-opacity="1" fill-rule="nonzero" stroke="none" d="m 61.08012,53.57408 -25.60733,-48 C 34.73676,4.24075 33.40494,3.50001 31.92168,3.50001 c -1.48325,0 -2.82191,0.88888 -3.56912,2.22222 l -25.41664,48 c -0.59827,1.18519 -0.60511,2.81482 0.13155,4 0.73665,1.18519 1.92077,1.77778 3.40403,1.77778 l 51.02395,0 c 1.48326,0 2.82129,-0.74074 3.41957,-1.92593 0.74659,-1.18518 0.75281,-2.66666 0.1651,-4 z"/><path id="path11159" fill="none" stroke="url(#linearGradient3101)" stroke-dasharray="none" stroke-miterlimit="4" stroke-opacity="1" stroke-width="1" d="M 59.23024,52.84872 34.87649,7.10296 c -1.0372,-1.97068 -1.40922,-2.60295 -2.98548,-2.60295 -1.3557,0 -2.06505,0.92082 -3.04475,2.78098 L 4.76283,52.98991 c -1.39848,2.56629 -1.54831,3.23523 -0.87518,4.36475 0.67312,1.12953 1.53739,1.06801 4.73076,1.14169 l 47.33454,0 c 2.97297,0.0368 3.64265,-0.1902 4.18966,-1.31972 0.68257,-1.12953 0.39224,-2.02567 -0.91237,-4.32791 z" opacity=".6"/><path id="path11155-59" fill="none" stroke="#311d00" stroke-dasharray="none" stroke-dashoffset="0" stroke-linecap="butt" stroke-linejoin="miter" stroke-miterlimit="4" stroke-opacity="1" stroke-width="1" d="M 61.08012,53.57408 35.47279,5.5740799 c -0.73603,-1.33333 -2.06785,-2.07407 -3.55111,-2.07407 -1.48325,0 -2.82191,0.88888 -3.56912,2.22222 L 2.93592,53.72223 c -0.59827,1.18519 -0.60511,2.81482 0.13155,4 0.73665,1.18519 1.92077,1.77778 3.40403,1.77778 l 51.02395,0 c 1.48326,0 2.82129,-0.74074 3.41957,-1.92593 0.74659,-1.18518 0.75281,-2.66666 0.1651,-4 z" color="#000" display="inline" enable-background="accumulate" opacity=".4" overflow="visible" visibility="visible" style="marker:none"/><path id="path4199" fill="#fff" fill-opacity="1" stroke="none" stroke-dasharray="none" stroke-linejoin="round" stroke-miterlimit="4" stroke-opacity=".498" stroke-width="1" d="m 32,19 c -2.209138,0 -4,1.790862 -4,4 0,4 1.333334,9.333334 2.666666,20 l 2.666668,0 C 34.666666,32.333334 36,27 36,23 36,20.790862 34.209138,19 32,19 Z m 0,28 c -2.209138,0 -4,1.790862 -4,4 0,2.209138 1.790862,4 4,4 2.209138,0 4,-1.790862 4,-4 0,-2.209138 -1.790862,-4 -4,-4 z" opacity=".3"/><path id="path4159-3" fill="url(#linearGradient4236)" fill-opacity="1" stroke="none" stroke-dasharray="none" stroke-linejoin="round" stroke-miterlimit="4" stroke-opacity=".498" stroke-width="1" d="m 32,18 c -2.209138,0 -4,1.790862 -4,4 0,4 1.333334,9.333334 2.666666,20 l 2.666668,0 C 34.666666,31.333334 36,26 36,22 36,19.790862 34.209138,18 32,18 Z m 0,28 c -2.209138,0 -4,1.790862 -4,4 0,2.209138 1.790862,4 4,4 2.209138,0 4,-1.790862 4,-4 0,-2.209138 -1.790862,-4 -4,-4 z" opacity="1"/><path id="path4203" fill="none" fill-opacity="1" stroke="#000" stroke-dasharray="none" stroke-linejoin="round" stroke-miterlimit="4" stroke-opacity="1" stroke-width="2" d="m 32,18 c -2.209138,0 -4,1.790862 -4,4 0,4 1.333334,9.333334 2.666666,20 l 2.666668,0 C 34.666666,31.333334 36,26 36,22 36,19.790862 34.209138,18 32,18 Z m 0,28 c -2.209138,0 -4,1.790862 -4,4 0,2.209138 1.790862,4 4,4 2.209138,0 4,-1.790862 4,-4 0,-2.209138 -1.790862,-4 -4,-4 z" clip-path="url(#clipPath4207)" opacity=".1"/></svg>
