<svg xmlns="http://www.w3.org/2000/svg" xmlns:svg="http://www.w3.org/2000/svg" xmlns:xlink="http://www.w3.org/1999/xlink" id="svg7241" width="48" height="48"><defs id="defs7243"><radialGradient id="radialGradient7403" cx="302.854" cy="86.963" r=".784" fx="302.854" fy="86.963" gradientTransform="matrix(1.6443661,0,0,2.1729477,-195.14919,-102.18432)" gradientUnits="userSpaceOnUse" xlink:href="#linearGradient7010"/><linearGradient id="linearGradient7010"><stop id="stop7012" offset="0" stop-color="#fff" stop-opacity="1"/><stop id="stop7014" offset="1" stop-color="#fff" stop-opacity="0"/></linearGradient><radialGradient id="radialGradient7401" cx="302.854" cy="86.963" r=".784" fx="302.854" fy="86.963" gradientTransform="matrix(1.6443661,0,0,2.1729477,-195.14919,-102.18432)" gradientUnits="userSpaceOnUse" xlink:href="#linearGradient7010"/><linearGradient id="linearGradient7399" x1="181.841" x2="191.141" y1="149.632" y2="181.3" gradientUnits="userSpaceOnUse" xlink:href="#linearGradient6002"/><linearGradient id="linearGradient6002"><stop id="stop6004" offset="0" stop-color="#fff" stop-opacity="1"/><stop id="stop6006" offset="1" stop-color="#fff" stop-opacity="0"/></linearGradient><linearGradient id="linearGradient7397" x1="181.841" x2="191.141" y1="149.632" y2="181.3" gradientUnits="userSpaceOnUse" xlink:href="#linearGradient6002"/><linearGradient id="linearGradient6992"><stop id="stop6994" offset="0" stop-color="#fff" stop-opacity="1"/><stop id="stop6996" offset="1" stop-color="#fff" stop-opacity="0"/></linearGradient><radialGradient id="radialGradient7395" cx="326.02" cy="58.371" r="11.093" fx="326.02" fy="58.371" gradientTransform="matrix(1.4476199,-5.1119044e-6,2.2611777e-6,0.6403339,-145.93333,19.733632)" gradientUnits="userSpaceOnUse" xlink:href="#linearGradient6992"/><radialGradient id="radialGradient7393" cx="4.392" cy="32.308" r="6.375" fx="4.392" fy="32.308" gradientTransform="matrix(1,0,0,0.509804,0,16.05392)" gradientUnits="userSpaceOnUse" xlink:href="#linearGradient2315"/><linearGradient id="linearGradient2315"><stop id="stop2317" offset="0" stop-color="#fff" stop-opacity="1"/><stop id="stop2319" offset="1" stop-color="#fff" stop-opacity="0"/></linearGradient><radialGradient id="radialGradient7391" cx="4.392" cy="32.308" r="6.375" fx="4.392" fy="32.308" gradientTransform="matrix(1,0,0,0.509804,0,16.05392)" gradientUnits="userSpaceOnUse" xlink:href="#linearGradient2315"/><linearGradient id="linearGradient6982"><stop id="stop6984" offset="0" stop-color="#fff" stop-opacity="1"/><stop id="stop6986" offset="1" stop-color="#fff" stop-opacity="0"/></linearGradient><radialGradient id="radialGradient7389" cx="29.674" cy="13.772" r="17.742" fx="29.674" fy="13.772" gradientTransform="matrix(0.9571167,0,1.3684827e-8,1.4032972,297.21212,42.648718)" gradientUnits="userSpaceOnUse" xlink:href="#linearGradient6982"/><filter id="filter6073" width="1.384" height="2.314" x="-.192" y="-.657"><feGaussianBlur id="feGaussianBlur6075" stdDeviation="8.543"/></filter><radialGradient id="radialGradient7387" cx="72.5" cy="212" r="44.5" fx="72.5" fy="212" gradientTransform="matrix(1,0,0,0.2921348,0,150.06742)" gradientUnits="userSpaceOnUse" xlink:href="#linearGradient5948"/><filter id="filter6033" width="1.169" height="2.207" x="-.085" y="-.603"><feGaussianBlur id="feGaussianBlur6035" stdDeviation="5.438"/></filter><linearGradient id="linearGradient5948"><stop id="stop5950" offset="0" stop-color="#000" stop-opacity="1"/><stop id="stop5952" offset="1" stop-color="#000" stop-opacity="0"/></linearGradient><radialGradient id="radialGradient7385" cx="72.5" cy="212" r="44.5" fx="72.5" fy="212" gradientTransform="matrix(1,0,0,0.2921348,0,150.06742)" gradientUnits="userSpaceOnUse" xlink:href="#linearGradient5948"/><filter id="filter5944" width="1.317" height="2.087" x="-.159" y="-.543"><feGaussianBlur id="feGaussianBlur5946" stdDeviation="7.064"/></filter><linearGradient id="linearGradient5957"><stop id="stop5959" offset="0" stop-color="#000" stop-opacity="1"/><stop id="stop5961" offset="1" stop-color="#000" stop-opacity="0"/></linearGradient><radialGradient id="radialGradient7383" cx="72.5" cy="212" r="44.5" fx="72.5" fy="212" gradientTransform="matrix(1,0,0,0.2921348,0,150.06742)" gradientUnits="userSpaceOnUse" xlink:href="#linearGradient5957"/></defs><metadata id="metadata7246"/><g id="layer1"><g id="g7116" display="inline" transform="translate(-295.99974,-50.000023)"><path id="path6353" fill="url(#radialGradient7383)" fill-opacity="1" fill-rule="evenodd" stroke="none" stroke-dasharray="none" stroke-dashoffset="0" stroke-linecap="round" stroke-linejoin="round" stroke-miterlimit="4" stroke-opacity="1" stroke-width="2" marker-end="none" marker-mid="none" marker-start="none" d="M 117,212 A 44.5,13 0 1 1 28,212 A 44.5,13 0 1 1 117,212 z" display="inline" enable-background="accumulate" filter="url(#filter5944)" overflow="visible" transform="matrix(0.1986123,0,0,0.1986123,291.9306,47.055039)" visibility="visible" style="marker:none"/><path marker-end="none" style="marker:none" id="path6355" fill="url(#radialGradient7385)" fill-opacity="1" fill-rule="evenodd" stroke="none" stroke-dasharray="none" stroke-dashoffset="0" stroke-linecap="round" stroke-linejoin="round" stroke-miterlimit="4" stroke-opacity="1" stroke-width="2" marker-mid="none" marker-start="none" d="M 117,212 A 44.5,13 0 1 1 28,212 A 44.5,13 0 1 1 117,212 z" display="inline" enable-background="accumulate" filter="url(#filter6033)" opacity=".211" overflow="visible" transform="matrix(0.4768755,0,0,0.229168,286.15591,40.577223)" visibility="visible"/><path id="path6357" fill="url(#radialGradient7387)" fill-opacity="1" fill-rule="evenodd" stroke="none" stroke-dasharray="none" stroke-dashoffset="0" stroke-linecap="round" stroke-linejoin="round" stroke-miterlimit="4" stroke-opacity="1" stroke-width="2" marker-end="none" marker-mid="none" marker-start="none" d="M 117,212 A 44.5,13 0 1 1 28,212 A 44.5,13 0 1 1 117,212 z" display="inline" enable-background="accumulate" filter="url(#filter6073)" opacity=".343" overflow="visible" transform="matrix(0.229168,0,0,0.229168,315.13768,40.577223)" visibility="visible" style="marker:none"/><path id="path7042" fill="#a7cc5c" fill-opacity="1" fill-rule="nonzero" stroke="#42770c" stroke-dashoffset="0" stroke-linecap="round" stroke-linejoin="round" stroke-miterlimit="4" stroke-opacity="1" stroke-width="1" marker-end="none" marker-mid="none" marker-start="none" d="M 337.56459,54.596927 C 337.56459,54.596927 314.50209,58.492233 314.50209,58.492233 L 314.50209,82.129638 C 312.85613,81.571987 310.57031,81.426209 308.06459,81.942138 C 303.70828,82.839107 300.58673,85.241625 301.06459,87.285888 C 301.54245,89.330151 305.45828,90.276608 309.81459,89.379638 C 313.93123,88.532018 317.49871,86.341836 317.41722,84.379638 L 317.57347,65.348388 C 317.57347,65.348388 334.50393,62.453082 334.50393,62.453082 L 334.50393,79.737696 C 324.25393,78.237696 321.21173,82.630932 321.68959,84.675196 C 322.16745,86.719459 326.08328,87.665915 330.43959,86.768946 C 334.30497,85.973061 337.072,84.005735 337.34584,82.143946 L 337.56459,54.596927 z" display="block" visibility="visible" style="marker:none"/><path id="path2311" fill="none" fill-opacity="1" fill-rule="nonzero" stroke="url(#radialGradient7389)" stroke-dasharray="none" stroke-dashoffset="0" stroke-linecap="butt" stroke-linejoin="miter" stroke-miterlimit="4" stroke-opacity="1" stroke-width="1" marker-end="none" marker-mid="none" marker-start="none" d="M 336.66863,55.785801 C 336.66863,55.785801 315.48686,59.415942 315.48686,59.415942 L 315.48686,83.287211 C 307.9216,81.381901 301.75375,85.12162 302.20818,87.065655 C 302.91262,90.38469 316.58656,88.167889 316.50906,83.926895 L 316.65765,64.453729 C 316.65765,64.453729 335.50803,61.561397 335.50803,61.561397 L 335.50803,80.998563 C 327.94174,79.071916 322.24253,82.374947 322.69696,84.318983 C 323.27639,87.513018 335.07519,86.432345 336.4606,81.661837 L 336.66863,55.785801 z" display="block" opacity=".512" visibility="visible" style="marker:none"/><path id="path2313" fill="url(#radialGradient7391)" fill-opacity="1" fill-rule="nonzero" stroke="none" stroke-dasharray="none" stroke-dashoffset="0" stroke-linecap="butt" stroke-linejoin="miter" stroke-miterlimit="4" stroke-opacity="1" stroke-width="1" marker-end="none" marker-mid="none" marker-start="none" d="M 12.25,32.75 A 6.375,3.25 0 1 1 -0.5,32.75 A 6.375,3.25 0 1 1 12.25,32.75 z" display="block" opacity=".512" overflow="visible" transform="matrix(0.734516,-0.111645,0.111645,0.734516,299.84295,61.9441)" visibility="visible" style="marker:none"/><path id="path2323" fill="url(#radialGradient7393)" fill-opacity="1" fill-rule="nonzero" stroke="none" stroke-dasharray="none" stroke-dashoffset="0" stroke-linecap="butt" stroke-linejoin="miter" stroke-miterlimit="4" stroke-opacity="1" stroke-width="1" marker-end="none" marker-mid="none" marker-start="none" d="M 12.25,32.75 A 6.375,3.25 0 1 1 -0.5,32.75 A 6.375,3.25 0 1 1 12.25,32.75 z" display="block" opacity=".512" overflow="visible" transform="matrix(0.734516,-0.111645,0.111645,0.734516,319.68546,59.109454)" visibility="visible" style="marker:none"/><path id="path6990" fill="url(#radialGradient7395)" fill-opacity="1" fill-rule="evenodd" stroke="none" stroke-linecap="butt" stroke-linejoin="miter" stroke-opacity="1" stroke-width="1" d="M 314.92768,59.141752 L 315.01607,62.235345 L 337.11316,58.523034 L 337.02477,55.164277 L 314.92768,59.141752 z"/><path stroke-width="2" style="marker:none" id="path7000" fill="url(#linearGradient7397)" fill-opacity="1" fill-rule="evenodd" stroke="none" stroke-dasharray="none" stroke-dashoffset="0" stroke-linecap="round" stroke-linejoin="round" stroke-miterlimit="4" stroke-opacity="1" marker-end="none" marker-mid="none" marker-start="none" d="M 217.5,159.5 A 32.5,14 0 1 1 152.5,159.5 A 32.5,14 0 1 1 217.5,159.5 z" display="inline" enable-background="accumulate" opacity=".68" overflow="visible" transform="matrix(0.1666704,-2.8476107e-2,3.7049941e-2,0.1281007,272.75652,69.086018)" visibility="visible"/><path stroke-width="2" style="marker:none" id="path7004" fill="url(#linearGradient7399)" fill-opacity="1" fill-rule="evenodd" stroke="none" stroke-dasharray="none" stroke-dashoffset="0" stroke-linecap="round" stroke-linejoin="round" stroke-miterlimit="4" stroke-opacity="1" marker-end="none" marker-mid="none" marker-start="none" d="M 217.5,159.5 A 32.5,14 0 1 1 152.5,159.5 A 32.5,14 0 1 1 217.5,159.5 z" display="inline" enable-background="accumulate" opacity=".68" overflow="visible" transform="matrix(0.1666704,-2.8476107e-2,3.7049941e-2,0.1281007,293.00652,66.836018)" visibility="visible"/><path id="path7008" fill="url(#radialGradient7401)" fill-opacity="1" fill-rule="evenodd" stroke="none" stroke-dasharray="none" stroke-dashoffset="0" stroke-linecap="round" stroke-linejoin="round" stroke-miterlimit="4" stroke-opacity="1" stroke-width="0" marker-end="none" marker-mid="none" marker-start="none" d="M 303.63807,87.117538 A 0.78358209,1.0354477 0 1 1 302.07091,87.117538 A 0.78358209,1.0354477 0 1 1 303.63807,87.117538 z" display="inline" enable-background="new" overflow="visible" transform="translate(-0.2238806,-0.3358209)" visibility="visible" style="marker:none"/><path id="path7018" fill="url(#radialGradient7403)" fill-opacity="1" fill-rule="evenodd" stroke="none" stroke-dasharray="none" stroke-dashoffset="0" stroke-linecap="round" stroke-linejoin="round" stroke-miterlimit="4" stroke-opacity="1" stroke-width="0" marker-end="none" marker-mid="none" marker-start="none" d="M 303.63807,87.117538 A 0.78358209,1.0354477 0 1 1 302.07091,87.117538 A 0.78358209,1.0354477 0 1 1 303.63807,87.117538 z" display="inline" enable-background="new" overflow="visible" transform="translate(20.541045,-2.9664179)" visibility="visible" style="marker:none"/></g></g></svg>
