<svg xmlns="http://www.w3.org/2000/svg" xmlns:xlink="http://www.w3.org/1999/xlink" id="svg4351" width="48" height="48" version="1.1"><defs id="defs4353"><linearGradient id="linearGradient3409" x1="35.517" x2="34.103" y1="4.858" y2="6.544" gradientUnits="userSpaceOnUse"><stop id="stop4269" offset="0" stop-color="#c4c4c4"/><stop id="stop4271" offset="1" stop-color="#c4c4c4" stop-opacity="0"/></linearGradient><linearGradient id="linearGradient3412" x1="32.892" x2="36.358" y1="8.059" y2="5.457" gradientTransform="matrix(.99770 0 0 1.0407 .16380 -1.1058)" gradientUnits="userSpaceOnUse"><stop id="stop8591" offset="0" stop-color="#fefefe"/><stop id="stop8593" offset="1" stop-color="#cbcbcb"/></linearGradient><filter id="filter3212" width="1.297" height="1.329" x="-.148" y="-.164" color-interpolation-filters="sRGB"><feGaussianBlur id="feGaussianBlur3214" stdDeviation=".774"/></filter><linearGradient id="linearGradient3416" x1="24" x2="24" y1="2" y2="46.017" gradientTransform="matrix(1 0 0 .97778 0 -.96667)" gradientUnits="userSpaceOnUse"><stop id="stop3213" offset="0" stop-color="#fff"/><stop id="stop3215" offset="1" stop-color="#fff" stop-opacity="0"/></linearGradient><linearGradient id="linearGradient3438" x1="-22.54" x2="-22.54" y1="11.109" y2="46.264" gradientTransform="matrix(.88575 0 0 1.0074 46.104 -1.718)" gradientUnits="userSpaceOnUse" xlink:href="#linearGradient3932"/><linearGradient id="linearGradient3932"><stop id="stop3934" offset="0" stop-color="#828282"/><stop id="stop3936" offset="1" stop-color="#434343"/></linearGradient><linearGradient id="linearGradient3440" x1="16.746" x2="16.746" y1="46.133" y2="1.41" gradientTransform="matrix(.94724 0 0 .97076 2.0425 -.79435)" gradientUnits="userSpaceOnUse" xlink:href="#linearGradient3582"/><linearGradient id="linearGradient3582"><stop id="stop3584" offset="0" stop-color="#333"/><stop id="stop3586" offset="1" stop-color="#5a5a5a"/></linearGradient><linearGradient id="linearGradient3443" x1="-22.54" x2="-22.54" y1="11.109" y2="46.264" gradientTransform="matrix(.87741 0 0 1.0045 44.193 -1.5806)" gradientUnits="userSpaceOnUse" xlink:href="#linearGradient3932"/><linearGradient id="linearGradient3445" x1="16.746" x2="16.746" y1="46.133" y2="1.41" gradientTransform="matrix(.93832 0 0 .96794 .54721 -.65965)" gradientUnits="userSpaceOnUse" xlink:href="#linearGradient3582"/><radialGradient id="radialGradient3450" cx="102" cy="112.3" r="139.56" gradientTransform="matrix(.36170 0 0 -.39078 .85106 47.517)" gradientUnits="userSpaceOnUse"><stop id="stop41" offset="0"/><stop id="stop47" offset=".189"/><stop id="stop49" offset=".257" stop-opacity="0"/><stop id="stop51" offset="1" stop-opacity="0"/></radialGradient><radialGradient id="radialGradient3453" cx="14.766" cy="10.898" r="18" gradientTransform="matrix(-2.2703e-8 2.1357 -3.5601 -3.7845e-8 54.621 -24.438)" gradientUnits="userSpaceOnUse"><stop id="stop3618" offset="0" stop-color="#f0c178"/><stop id="stop3270" offset=".5" stop-color="#e18941"/><stop id="stop3620" offset="1" stop-color="#ec4f18"/></radialGradient><linearGradient id="linearGradient3455" x1="-51.786" x2="-51.786" y1="53.624" y2="2.906" gradientTransform="matrix(.80750 0 0 .89483 59.41 -2.9806)" gradientUnits="userSpaceOnUse"><stop id="stop3624" offset="0" stop-color="#c92e13"/><stop id="stop3626" offset="1" stop-color="#dea176"/></linearGradient><radialGradient id="radialGradient3458" cx="605.71" cy="486.65" r="117.14" gradientTransform="matrix(.023040 0 0 0.0147 26.361 37.04)" gradientUnits="userSpaceOnUse" xlink:href="#linearGradient5060"/><linearGradient id="linearGradient5060"><stop id="stop5062" offset="0"/><stop id="stop5064" offset="1" stop-opacity="0"/></linearGradient><radialGradient id="radialGradient3461" cx="605.71" cy="486.65" r="117.14" gradientTransform="matrix(-.023040 0 0 0.0147 21.623 37.04)" gradientUnits="userSpaceOnUse" xlink:href="#linearGradient5060"/><linearGradient id="linearGradient4349" x1="302.86" x2="302.86" y1="366.65" y2="609.51" gradientTransform="matrix(.067325 0 0 0.0147 -.34114 37.04)" gradientUnits="userSpaceOnUse"><stop id="stop5050" offset="0" stop-opacity="0"/><stop id="stop5056" offset=".5"/><stop id="stop5052" offset="1" stop-opacity="0"/></linearGradient></defs><metadata id="metadata4356"/><g id="layer1"><rect id="rect2879" width="32.508" height="3.57" x="7.738" y="42.43" fill="url(#linearGradient4349)" opacity=".3"/><path id="path2881" fill="url(#radialGradient3461)" d="m7.7378 42.43v3.5699c-1.1865 0.0067-2.8684-0.79982-2.8684-1.7852 0-0.98533 1.324-1.7847 2.8684-1.7847z" opacity=".3"/><path id="path2883" fill="url(#radialGradient3458)" d="m40.246 42.43v3.5699c1.1865 0.0067 2.8684-0.79982 2.8684-1.7852 0-0.98533-1.324-1.7847-2.8684-1.7847z" opacity=".3"/><path id="path4160" fill="url(#radialGradient3453)" stroke="url(#linearGradient3455)" stroke-linejoin="round" stroke-width="1" d="m6.5 0.4972h24.061c0.52523 1.9602 6.1331 6.8516 10.939 9.6264v34.379h-35v-44.006z"/><path id="path4191" fill="url(#radialGradient3450)" d="m7.3617 44c-0.1993 0-0.3617-0.17546-0.3617-0.39078v-42.204c0-0.21571 0.1624-0.39078 0.3617-0.39078 7.4833 0.1082 15.775-0.16138 23.249 0.0271l10.283 8.866 0.106 33.702c0 0.216-0.162 0.391-0.362 0.391h-33.276z" opacity=".05"/><path id="path3460" fill="none" stroke="#464646" stroke-linecap="square" stroke-linejoin="round" stroke-width=".963" d="m13.482 22.518 23.037-0.03716"/><path id="path4720" fill="#fff" fill-rule="evenodd" stroke="#fff" stroke-linecap="square" stroke-linejoin="round" stroke-width=".963" d="m13.481 23.518 23.037-0.037" opacity=".3"/><path id="path3489" fill="url(#linearGradient3443)" stroke="url(#linearGradient3445)" stroke-linejoin="round" stroke-width=".973" d="m12.435 0.48668c0 2.6105 0.07856 41.917 0.07856 44.027h-5.7772c-0.46808-0.5213-0.11214-1.5563-0.22336-2.2943v-41.479l0.065-0.18007 0.15808-0.073933h5.6987z" display="block"/><path id="path4696" fill="url(#linearGradient3438)" stroke="url(#linearGradient3440)" stroke-linejoin="round" stroke-width=".978" d="m35.538 44.481c0-2.3164-0.04879-36.575-0.04879-38.992 1.6474 2.3487 5.0717 3.0723 6.022 4.8768 0.000001 11.287 0.000003 22.575 0.000003 33.862-0.46468 0.53134-1.3872 0.1273-2.0451 0.25355h-3.9282z" display="block"/><rect id="rect3464" width="3" height="2" x="8" y="4" fill="#fff"/><rect id="rect3466" width="3" height="2" x="8" y="8" fill="#fff"/><rect id="rect3468" width="3" height="2" x="8" y="12" fill="#fff"/><rect id="rect3470" width="3" height="2" x="8" y="16" fill="#fff"/><rect id="rect3472" width="3" height="2" x="8" y="20" fill="#fff"/><rect id="rect3474" width="3" height="2" x="8" y="24" fill="#fff"/><rect id="rect3476" width="3" height="2" x="8" y="28" fill="#fff"/><rect id="rect3478" width="3" height="2" x="8" y="32" fill="#fff"/><rect id="rect3480" width="3" height="2" x="8" y="36" fill="#fff"/><rect id="rect3482" width="3" height="2" x="8" y="40" fill="#fff"/><g id="g4684" stroke-width=".919" transform="matrix(1.2089 0 0 .95191 -8.5145 -.32751)"><rect id="rect2565" width="2.482" height="1.964" x="37.648" y="11.9" fill="#fff"/><rect id="rect2567" width="2.482" height="1.964" x="37.648" y="16.271" fill="#fff"/><rect id="rect2569" width="2.482" height="1.964" x="37.648" y="20.643" fill="#fff"/><rect id="rect2571" width="2.482" height="1.964" x="37.648" y="25.015" fill="#fff"/><rect id="rect2573" width="2.482" height="1.964" x="37.648" y="29.387" fill="#fff"/><rect id="rect2575" width="2.482" height="1.964" x="37.648" y="33.758" fill="#fff"/><rect id="rect2577" width="2.482" height="1.964" x="37.648" y="38.13" fill="#fff"/><rect id="rect2579" width="2.482" height="1.964" x="37.648" y="42.502" fill="#fff"/></g><path id="path2435" fill="none" stroke="url(#linearGradient3416)" stroke-linejoin="round" stroke-width="1" d="m40.5 10.259v33.263h-33v-42.045h22.866" opacity=".4"/><path id="path12038" fill-rule="evenodd" d="m28.617 0.92126c4.2825 0 2.1532 8.4832 2.1532 8.4832s10.358-1.8023 10.358 2.8187c0-2.6097-11.302-10.729-12.511-11.302z" filter="url(#filter3212)" opacity=".4"/><path id="path4474" fill="url(#linearGradient3412)" fill-rule="evenodd" d="m28.617 0.92126c3.1865 0 2.3358 7.6619 2.3358 7.6619s10.175-0.98105 10.175 3.64c0-1.1259 0.08591-1.9322-0.13378-2.2836-1.578-2.5243-8.113-8.1885-10.575-8.9309-0.184-0.05556-0.875-0.08754-1.802-0.08754z"/><path id="path4238" fill="none" stroke="url(#linearGradient3409)" stroke-linejoin="round" stroke-width="1" d="m30.561 0.5c1.4069 0.47465 8.9655 5.8794 10.939 9.6236v12.285c-40.446 15.729-35.236-21.909-10.939-21.909z"/></g></svg>