<svg xmlns="http://www.w3.org/2000/svg" xmlns:xlink="http://www.w3.org/1999/xlink" id="svg2817" width="48" height="48" version="1.0"><defs id="defs2819"><radialGradient id="radialGradient2805" cx="5" cy="41.5" r="5" gradientTransform="matrix(.59382 0 0 1.5367 41.141 -103.94)" gradientUnits="userSpaceOnUse" xlink:href="#linearGradient3681"/><linearGradient id="linearGradient2803" x1="17.554" x2="17.554" y1="46" y2="35" gradientTransform="matrix(1.757 0 0 1.397 -17.394 -16.412)" gradientUnits="userSpaceOnUse"><stop id="stop3705" offset="0" stop-opacity="0"/><stop id="stop3711" offset=".5"/><stop id="stop3707" offset="1" stop-opacity="0"/></linearGradient><linearGradient id="linearGradient3681"><stop id="stop3683" offset="0"/><stop id="stop3685" offset="1" stop-opacity="0"/></linearGradient><radialGradient id="radialGradient2801" cx="5" cy="41.5" r="5" gradientTransform="matrix(.59382 0 0 1.5367 -6.6595 -103.94)" gradientUnits="userSpaceOnUse" xlink:href="#linearGradient3681"/><linearGradient id="linearGradient7808" x1="13.472" x2="57.726" y1="25.411" y2="25.411" gradientTransform="matrix(0 -.71282 -.67402 0 53.648 31.954)" gradientUnits="userSpaceOnUse"><stop id="stop4224" offset="0" stop-color="#fff"/><stop id="stop4226" offset="1" stop-color="#fff" stop-opacity="0"/></linearGradient><linearGradient id="linearGradient7811" x1="6.339" x2="58.511" y1="23.891" y2="23.891" gradientTransform="matrix(0 .61460 -.58384 0 49.851 .36717)" gradientUnits="userSpaceOnUse"><stop id="stop3706" offset="0" stop-color="#fff"/><stop id="stop3708" offset="1" stop-color="#a2a2a2"/></linearGradient><linearGradient id="linearGradient7814" x1="44.995" x2="3.005" y1="17.5" y2="17.5" gradientTransform="translate(6.1179e-7 -1)" gradientUnits="userSpaceOnUse" spreadMethod="reflect"><stop id="stop3277" offset="0" stop-color="#fff" stop-opacity="0"/><stop id="stop3283" offset=".245" stop-color="#fff"/><stop id="stop3285" offset=".773" stop-color="#fff"/><stop id="stop3279" offset="1" stop-color="#fff" stop-opacity="0"/></linearGradient><linearGradient id="linearGradient7817" x1="26" x2="26" y1="22" y2="8" gradientTransform="translate(6.1179e-7 -1)" gradientUnits="userSpaceOnUse"><stop id="stop3829" offset="0" stop-color="#fff"/><stop id="stop4295" offset=".302" stop-color="#fff"/><stop id="stop4293" offset=".344" stop-color="#fff" stop-opacity=".69"/><stop id="stop3832" offset="1" stop-color="#fff" stop-opacity="0"/></linearGradient><linearGradient id="linearGradient7820" x1="24.823" x2="24.997" y1="15.378" y2="37.277" gradientTransform="matrix(1.2822 0 0 1.5573 -6.0702 -16.291)" gradientUnits="userSpaceOnUse"><stop id="stop3201" offset="0" stop-color="#dac197"/><stop id="stop3203" offset=".239" stop-color="#c1a581"/><stop id="stop3205" offset=".276" stop-color="#dbc298"/><stop id="stop3207" offset="1" stop-color="#a68b60"/></linearGradient><linearGradient id="linearGradient7822" x1="15.464" x2="15.464" y1="7.976" y2="45.042" gradientTransform="translate(6.1179e-7 -1)" gradientUnits="userSpaceOnUse"><stop id="stop3297" offset="0" stop-color="#c9af8b"/><stop id="stop3299" offset=".239" stop-color="#ad8757"/><stop id="stop3301" offset=".276" stop-color="#c2a57f"/><stop id="stop3303" offset="1" stop-color="#9d7d53"/></linearGradient></defs><g id="g7828"><g id="g3305" opacity=".4" transform="matrix(.99266 0 0 .97615 .27519 .29296)"><rect id="rect2484" width="2.96" height="15.367" x="-3.69" y="-47.848" fill="url(#radialGradient2801)" transform="scale(-1)"/><rect id="rect2486" width="40.412" height="15.367" x="3.69" y="32.482" fill="url(#linearGradient2803)"/><rect id="rect3444" width="2.96" height="15.367" x="44.11" y="-47.848" fill="url(#radialGradient2805)" transform="scale(1,-1)"/></g><path id="path2488" fill="url(#linearGradient7820)" stroke="url(#linearGradient7822)" stroke-linecap="round" stroke-width=".994" d="m9.0107 7.5h29.498c1.722 0 2.4969-0.28655 2.9916 1l3.0017 8v25.674c0 1.5533 0.10293 1.316-1.6191 1.316h-37.765c-1.722 0-1.6191 0.23733-1.6191-1.316v-25.674l3.0017-8c0.48083-1.2606 0.78873-1 2.5107-1z" display="block"/><path id="rect3326" fill="url(#linearGradient7817)" d="m22 7h4v14h-1.1812-1.2094-0.97358-0.63585v-14z" opacity=".4"/><path id="path3273" fill="none" stroke="url(#linearGradient7814)" stroke-linecap="square" stroke-width="1" d="m3.5052 16.5h40.99" opacity=".4"/><path id="path3288" fill="url(#linearGradient7811)" stroke="#7f7f7f" stroke-linecap="round" stroke-linejoin="round" stroke-width=".985" d="m47.41 15.5-11.536-14.007-11.478 14.007h5.0073v11.007h13v-11.007h5.0073z"/><path id="path3290" fill="none" stroke="url(#linearGradient7808)" stroke-width=".985" d="m45.308 14.5-9.4056-11.434-9.385 11.434h3.9384v11h10.893v-11h3.9589z" opacity=".354"/></g></svg>