<svg xmlns="http://www.w3.org/2000/svg" xmlns:svg="http://www.w3.org/2000/svg" xmlns:xlink="http://www.w3.org/1999/xlink" id="svg2453" width="64" height="64" version="1.0"><metadata id="metadata35"/><defs id="defs2455"><linearGradient id="linearGradient3104-6"><stop id="stop3106-3" offset="0" stop-color="#000" stop-opacity=".318"/><stop id="stop3108-9" offset="1" stop-color="#000" stop-opacity=".24"/></linearGradient><linearGradient id="linearGradient3977-4"><stop id="stop3979-7" offset="0" stop-color="#fff" stop-opacity="1"/><stop id="stop3981-6" offset=".012" stop-color="#fff" stop-opacity=".235"/><stop id="stop3983-5" offset=".988" stop-color="#fff" stop-opacity=".157"/><stop id="stop3985-6" offset="1" stop-color="#fff" stop-opacity=".392"/></linearGradient><linearGradient id="linearGradient3600-9"><stop id="stop3602-3" offset="0" stop-color="#f4f4f4" stop-opacity="1"/><stop id="stop3604-7" offset="1" stop-color="#dbdbdb" stop-opacity="1"/></linearGradient><linearGradient id="linearGradient5060-2"><stop id="stop5062-3" offset="0" stop-color="#000" stop-opacity="1"/><stop id="stop5064-1" offset="1" stop-color="#000" stop-opacity="0"/></linearGradient><linearGradient id="linearGradient5048-8"><stop id="stop5050-4" offset="0" stop-color="#000" stop-opacity="0"/><stop id="stop5056-5" offset=".5" stop-color="#000" stop-opacity="1"/><stop id="stop5052-1" offset="1" stop-color="#000" stop-opacity="0"/></linearGradient><linearGradient id="linearGradient3163" x1="-51.786" x2="-51.786" y1="50.786" y2="2.906" gradientTransform="matrix(1.3612077,0,0,0.95572049,91.691477,7.7856436)" gradientUnits="userSpaceOnUse" xlink:href="#linearGradient3104-6"/><linearGradient id="linearGradient3166" x1="24" x2="24" y1="5.864" y2="42.1" gradientTransform="matrix(1.5405406,0,0,1.216213,-4.9729707,5.8108651)" gradientUnits="userSpaceOnUse" xlink:href="#linearGradient3977-4"/><linearGradient id="linearGradient3169" x1="25.132" x2="25.132" y1=".985" y2="47.013" gradientTransform="matrix(1.6571391,0,0,0.99949772,-7.7713459,9.4785876)" gradientUnits="userSpaceOnUse" xlink:href="#linearGradient3600-9"/><radialGradient id="radialGradient3172" cx="605.714" cy="486.648" r="117.143" fx="605.714" fy="486.648" gradientTransform="matrix(0.03212956,0,0,0.02058823,40.136784,48.451416)" gradientUnits="userSpaceOnUse" xlink:href="#linearGradient5060-2"/><radialGradient id="radialGradient3175" cx="605.714" cy="486.648" r="117.143" fx="605.714" fy="486.648" gradientTransform="matrix(-0.03212956,0,0,0.02058823,23.863217,48.451416)" gradientUnits="userSpaceOnUse" xlink:href="#linearGradient5060-2"/><linearGradient id="linearGradient3178" x1="302.857" x2="302.857" y1="366.648" y2="609.505" gradientTransform="matrix(0.11390532,0,0,0.02058823,-9.1686406,48.451416)" gradientUnits="userSpaceOnUse" xlink:href="#linearGradient5048-8"/><linearGradient id="linearGradient3077-9" x1="164.28" x2="164.28" y1="241.651" y2="156.784" gradientTransform="matrix(0.62259178,0,0,0.47976456,-72.256838,-60.499888)" gradientUnits="userSpaceOnUse" xlink:href="#linearGradient4785-3-8"/><linearGradient id="linearGradient4785-3-8"><stop id="stop4787-5-5" offset="0" stop-color="#262626" stop-opacity="1"/><stop id="stop4789-1-1" offset="1" stop-color="#4d4d4d" stop-opacity="1"/></linearGradient><linearGradient id="linearGradient3079-1" x1="30.306" x2="30.306" y1="6.942" y2="36.269" gradientTransform="matrix(1.4133846,0,0,1.4015846,3.9862641,4.9034405)" gradientUnits="userSpaceOnUse" xlink:href="#linearGradient3610-302-9-7-6"/><linearGradient id="linearGradient3610-302-9-7-6"><stop id="stop3796-3-8-6" offset="0" stop-color="#1d1d1d" stop-opacity="1"/><stop id="stop3798-1-9-9" offset="1" stop-color="#000" stop-opacity="1"/></linearGradient><linearGradient id="linearGradient3242-59-5"><stop id="stop3244-9-4" offset="0" stop-color="#f8b17e" stop-opacity="1"/><stop id="stop3246-7-4" offset=".262" stop-color="#e35d4f" stop-opacity="1"/><stop id="stop3248-87-0" offset=".661" stop-color="#c6262e" stop-opacity="1"/><stop id="stop3250-2-0" offset="1" stop-color="#690b54" stop-opacity="1"/></linearGradient><linearGradient id="linearGradient3239" x1="229.01" x2="229.01" y1="600.009" y2="635.009" gradientTransform="matrix(0.94999998,0,0,-0.94999998,11.400504,1196.9785)" gradientUnits="userSpaceOnUse" xlink:href="#linearGradient3242-59-5"/><linearGradient id="linearGradient3241" x1="229.01" x2="229.01" y1="600.009" y2="635.009" gradientTransform="matrix(0.94999998,0,0,-0.94999998,11.400504,1196.9785)" gradientUnits="userSpaceOnUse" xlink:href="#linearGradient3242-59-5"/><linearGradient id="linearGradient3243" x1="229.01" x2="229.01" y1="600.009" y2="635.009" gradientTransform="matrix(0.94999998,0,0,-0.94999998,11.400504,1196.9785)" gradientUnits="userSpaceOnUse" xlink:href="#linearGradient3242-59-5"/></defs><rect id="rect2879-0" width="55" height="5" x="4.5" y="56" fill="url(#linearGradient3178)" fill-opacity="1" fill-rule="nonzero" stroke="none" stroke-width="1" display="inline" opacity=".3" overflow="visible" visibility="visible" style="marker:none"/><path id="path2881-4" fill="url(#radialGradient3175)" fill-opacity="1" fill-rule="nonzero" stroke="none" stroke-width="1" d="m 4.5,56.000216 c 0,0 0,4.9997 0,4.9997 -1.654593,0.01 -4,-1.1202 -4,-2.5002 0,-1.38 1.8464008,-2.4995 4,-2.4995 z" display="inline" opacity=".3" overflow="visible" visibility="visible" style="marker:none"/><path id="path2883-6" fill="url(#radialGradient3172)" fill-opacity="1" fill-rule="nonzero" stroke="none" stroke-width="1" d="m 59.5,56.000216 c 0,0 0,4.9997 0,4.9997 1.654592,0.01 4,-1.1202 4,-2.5002 0,-1.38 -1.846401,-2.4995 -4,-2.4995 z" display="inline" opacity=".3" overflow="visible" visibility="visible" style="marker:none"/><path id="path4160-6" fill="url(#linearGradient3169)" fill-opacity="1" stroke="none" d="m 2.9999928,12.000016 c 13.2907442,0 57.9999312,0.0032 57.9999312,0.0032 l 6.9e-5,45.996828 c 0,0 -38.666666,0 -58.0000002,0 0,-15.333349 0,-30.666461 0,-45.999746 z" display="inline"/><rect id="rect3180" width="53" height="41" x="5.5" y="14.5" fill="url(#linearGradient3077-9)" fill-opacity="1" fill-rule="nonzero" stroke="url(#linearGradient3079-1)" stroke-dasharray="none" stroke-dashoffset="0" stroke-linecap="round" stroke-linejoin="miter" stroke-miterlimit="4" stroke-opacity="1" stroke-width="1" color="#000" display="inline" enable-background="accumulate" overflow="visible" visibility="visible" style="marker:none"/><g stroke-opacity="1" style="marker:none" id="g4430" fill="#000" fill-opacity="1" fill-rule="nonzero" stroke="#000" stroke-dasharray="none" stroke-miterlimit="4" stroke-width="1.4" color="#000" display="inline" opacity=".05" transform="matrix(1.4270832,0,0,-1.4296948,-293.38924,913.85334)" visibility="visible"><path id="path4432" fill="#000" fill-opacity="1" fill-rule="nonzero" stroke="#000" stroke-dasharray="none" stroke-miterlimit="4" stroke-opacity="1" stroke-width="1.4" d="m 228.01,607.02 c -3.86,0 -7.0073,3.166 -7.0073,7.0103 0,3.8443 3.1472,6.9787 7.0073,6.9787 3.86,0 7.0073,-3.1344 7.0073,-6.9787 0,-3.8443 -3.1472,-7.0103 -7.0073,-7.0103 z m 0,2.021 c 2.7769,0 5.0097,2.2237 5.0097,4.9893 0,2.7656 -2.2328,4.9577 -5.0097,4.9577 -2.777,0 -5.0097,-2.1921 -5.0097,-4.9577 0,-2.7656 2.2328,-4.9893 5.0097,-4.9893 z" color="#000" display="inline" enable-background="accumulate" overflow="visible" visibility="visible" style="text-indent:0;text-transform:none;block-progression:tb;marker:none"/><path id="path4434" fill="#000" fill-opacity="1" fill-rule="nonzero" stroke="#000" stroke-dasharray="none" stroke-miterlimit="4" stroke-opacity="1" stroke-width="1.4" d="m 231.3069,609.3114 -8,8 1.4062,1.4062 8,-8 -1.4062,-1.4062 z" color="#000" display="inline" enable-background="accumulate" overflow="visible" visibility="visible" style="text-indent:0;text-transform:none;block-progression:tb;marker:none"/></g><path id="rect6741-1-8" fill="none" stroke="url(#linearGradient3166)" stroke-dasharray="none" stroke-dashoffset="0" stroke-linecap="round" stroke-linejoin="miter" stroke-miterlimit="4" stroke-opacity="1" stroke-width="1" d="m 60.499993,57.500016 -57.0000004,0 0,-45 57.0000004,0 z"/><path id="path4160-6-1" fill="none" stroke="url(#linearGradient3163)" stroke-dasharray="none" stroke-dashoffset="0" stroke-linecap="butt" stroke-linejoin="round" stroke-miterlimit="4" stroke-opacity="1" stroke-width="1" d="m 2.499962,11.500038 c 13.5199,0 59.000015,0.0032 59.000015,0.0032 l 6.1e-5,46.996892 c 0,0 -39.333383,0 -59.0000761,0 0,-15.66674 0,-31.333322 0,-46.999879 z" display="inline"/><g stroke-width="1" style="marker:none" id="g3618" fill="#000" fill-opacity="1" fill-rule="nonzero" stroke="none" stroke-dasharray="none" stroke-miterlimit="4" color="#000" display="inline" opacity=".15" transform="matrix(1.4270832,0,0,-1.4296948,-293.38924,913.85334)" visibility="visible"><path id="path3620" fill="#000" fill-opacity="1" fill-rule="nonzero" stroke="none" stroke-dasharray="none" stroke-miterlimit="4" stroke-width="1" d="m 228.01,607.02 c -3.86,0 -7.0073,3.166 -7.0073,7.0103 0,3.8443 3.1472,6.9787 7.0073,6.9787 3.86,0 7.0073,-3.1344 7.0073,-6.9787 0,-3.8443 -3.1472,-7.0103 -7.0073,-7.0103 z m 0,2.021 c 2.7769,0 5.0097,2.2237 5.0097,4.9893 0,2.7656 -2.2328,4.9577 -5.0097,4.9577 -2.777,0 -5.0097,-2.1921 -5.0097,-4.9577 0,-2.7656 2.2328,-4.9893 5.0097,-4.9893 z" color="#000" display="inline" enable-background="accumulate" overflow="visible" visibility="visible" style="text-indent:0;text-transform:none;block-progression:tb;marker:none"/><path id="path3622" fill="#000" fill-opacity="1" fill-rule="nonzero" stroke="none" stroke-dasharray="none" stroke-miterlimit="4" stroke-width="1" d="m 231.3069,609.3114 -8,8 1.4062,1.4062 8,-8 -1.4062,-1.4062 z" color="#000" display="inline" enable-background="accumulate" overflow="visible" visibility="visible" style="text-indent:0;text-transform:none;block-progression:tb;marker:none"/></g><g id="layer12" fill="url(#linearGradient3243)" fill-opacity="1" fill-rule="nonzero" stroke="none" color="#000" display="inline" transform="matrix(1.4270832,0,0,-1.4296948,-293.38924,912.85334)" visibility="visible" style="marker:none"><path id="path4222" fill="url(#linearGradient3239)" fill-opacity="1" fill-rule="nonzero" stroke="none" d="m 228.01,607.02 c -3.86,0 -7.0073,3.166 -7.0073,7.0103 0,3.8443 3.1472,6.9787 7.0073,6.9787 3.86,0 7.0073,-3.1344 7.0073,-6.9787 0,-3.8443 -3.1472,-7.0103 -7.0073,-7.0103 z m 0,2.021 c 2.7769,0 5.0097,2.2237 5.0097,4.9893 0,2.7656 -2.2328,4.9577 -5.0097,4.9577 -2.777,0 -5.0097,-2.1921 -5.0097,-4.9577 0,-2.7656 2.2328,-4.9893 5.0097,-4.9893 z" color="#000" display="inline" enable-background="accumulate" overflow="visible" visibility="visible" style="text-indent:0;text-transform:none;block-progression:tb;marker:none"/><path id="path4992" fill="url(#linearGradient3241)" fill-opacity="1" fill-rule="nonzero" stroke="none" d="m 231.3069,609.3114 -8,8 1.4062,1.4062 8,-8 -1.4062,-1.4062 z" color="#000" display="inline" enable-background="accumulate" overflow="visible" visibility="visible" style="text-indent:0;text-transform:none;block-progression:tb;marker:none"/></g></svg>