<svg xmlns="http://www.w3.org/2000/svg" xmlns:svg="http://www.w3.org/2000/svg" xmlns:xlink="http://www.w3.org/1999/xlink" id="svg9042" width="48" height="48"><defs id="defs9044"><linearGradient id="linearGradient4788-7"><stop id="stop4790-8" offset="0" stop-color="#fff" stop-opacity="1"/><stop id="stop4792-6" offset="1" stop-color="#fff" stop-opacity="0"/></linearGradient><radialGradient id="radialGradient10730" cx="326.021" cy="58" r="12.5" fx="326.021" fy="58" gradientTransform="matrix(-2.3452637,1.0305331e-6,0.1678059,-1.6711651,1062.4349,156.14514)" gradientUnits="userSpaceOnUse" xlink:href="#linearGradient4788-7"/><linearGradient id="linearGradient5687"><stop id="stop5689" offset="0" stop-color="#fff" stop-opacity="1"/><stop id="stop5691" offset="1" stop-color="#fff" stop-opacity="0"/></linearGradient><linearGradient id="linearGradient10733" x1="88" x2="178" y1="44.5" y2="202.5" gradientTransform="matrix(0.1923079,0,0,0.1854838,291.53839,45.645162)" gradientUnits="userSpaceOnUse" xlink:href="#linearGradient5687"/><linearGradient id="linearGradient4788"><stop id="stop4790" offset="0" stop-color="#fff" stop-opacity="1"/><stop id="stop4792" offset="1" stop-color="#fff" stop-opacity="0"/></linearGradient><radialGradient id="radialGradient10736" cx="327.5" cy="58" r="12.5" fx="327.5" fy="58" gradientTransform="matrix(6.4215263,5.8880003e-8,-1.5792387e-8,1.4577864,-1775.5499,-25.551629)" gradientUnits="userSpaceOnUse" xlink:href="#linearGradient4788"/><linearGradient id="linearGradient2699"><stop id="stop2701" offset="0" stop-color="#3c3c3c" stop-opacity="1"/><stop id="stop2703" offset="1" stop-color="#323232" stop-opacity="1"/></linearGradient><radialGradient id="radialGradient10739" cx="24.006" cy="37.922" r="19" fx="24.006" fy="37.922" gradientTransform="matrix(2.5089911,0,0,1.0747802,259.76908,42.963911)" gradientUnits="userSpaceOnUse" xlink:href="#linearGradient2699"/><linearGradient id="linearGradient4646"><stop id="stop4648" offset="0" stop-color="#fff" stop-opacity="1"/><stop id="stop4650" offset="1" stop-color="#fff" stop-opacity=".1"/></linearGradient><radialGradient id="radialGradient10744" cx="314.369" cy="75.284" r="22" fx="314.369" fy="75.284" gradientTransform="matrix(-3.0899695,-1.0606601,0.214115,-0.6237708,1278.6302,446.66487)" gradientUnits="userSpaceOnUse" xlink:href="#linearGradient4646"/><linearGradient id="linearGradient5538"><stop id="stop5540" offset="0" stop-color="#555753" stop-opacity="1"/><stop id="stop5542" offset="1" stop-color="#babdb6" stop-opacity="1"/></linearGradient><linearGradient id="linearGradient10749" x1="333.25" x2="293" y1="97" y2="54.018" gradientTransform="translate(0,1)" gradientUnits="userSpaceOnUse" xlink:href="#linearGradient5538"/><linearGradient id="linearGradient4654"><stop id="stop4656" offset="0" stop-color="#eeeeec" stop-opacity="1"/><stop id="stop4658" offset="1" stop-color="#babdb6" stop-opacity="1"/></linearGradient><radialGradient id="radialGradient10747" cx="314.31" cy="61.655" r="23" fx="314.31" fy="61.655" gradientTransform="matrix(1.1263461,4.2035788,-1.0745854,0.2879343,23.033648,-1278.1206)" gradientUnits="userSpaceOnUse" xlink:href="#linearGradient4654"/><linearGradient id="linearGradient2715-8"><stop id="stop2717-1" offset="0" stop-color="#fff" stop-opacity="1"/><stop id="stop2719-0" offset=".162" stop-color="#d3d7cf" stop-opacity="1"/><stop id="stop2721-2" offset=".856" stop-color="#d3d7cf" stop-opacity="1"/><stop id="stop2723-8" offset="1" stop-color="#fff" stop-opacity="1"/></linearGradient><linearGradient id="linearGradient10530-4" x1="311.625" x2="328.25" y1="93.5" y2="93.5" gradientTransform="matrix(1.3163827,0,0,0.9564971,-101.08987,4.045763)" gradientUnits="userSpaceOnUse" xlink:href="#linearGradient2715-8"/><linearGradient id="linearGradient4713-1"><stop id="stop4715-7" offset="0" stop-color="#fff" stop-opacity="1"/><stop id="stop4717-3" offset="1" stop-color="#fff" stop-opacity="0"/></linearGradient><radialGradient id="radialGradient10533-9" cx="320.031" cy="91.506" r="8.438" fx="320.031" fy="91.506" gradientTransform="matrix(2.3925374,1.1189841e-8,0,0.1578689,-445.49383,77.06124)" gradientUnits="userSpaceOnUse" xlink:href="#linearGradient4713-1"/><linearGradient id="linearGradient2712-5"><stop id="stop2714-0" offset="0" stop-color="#555753" stop-opacity="1"/><stop id="stop2716-3" offset=".52" stop-color="#babdb6" stop-opacity="1"/><stop id="stop2718-2" offset=".817" stop-color="#888a85" stop-opacity="1"/><stop id="stop2720-7" offset="1" stop-color="#555753" stop-opacity="1"/></linearGradient><linearGradient id="linearGradient10727" x1="325.813" x2="325.813" y1="86.909" y2="93.876" gradientTransform="matrix(1.2915983,0,0,0.7041466,-93.158919,27.958141)" gradientUnits="userSpaceOnUse" xlink:href="#linearGradient2712-5"/><linearGradient id="linearGradient10826"><stop id="stop10828" offset="0" stop-color="#555753" stop-opacity="1"/><stop id="stop10830" offset=".514" stop-color="#babdb6" stop-opacity="1"/><stop id="stop10832" offset=".628" stop-color="#eeeeec" stop-opacity="1"/><stop id="stop10834" offset=".772" stop-color="#fff" stop-opacity="1"/><stop id="stop10836" offset="1" stop-color="#555753" stop-opacity="1"/></linearGradient><linearGradient id="linearGradient10725" x1="320.281" x2="320.281" y1="83.457" y2="93.069" gradientTransform="matrix(1.2915983,0,0,0.7041466,-93.158919,27.958141)" gradientUnits="userSpaceOnUse" xlink:href="#linearGradient10826"/><filter id="filter11674" width="1.201" height="3.101" x="-.1" y="-1.05"><feGaussianBlur id="feGaussianBlur11676" stdDeviation="1.149"/><feBlend id="feBlend11678" in2="BackgroundImage" mode="darken"/></filter><filter id="filter11642" width="1.133" height="2.398" x="-.067" y="-.699"><feGaussianBlur id="feGaussianBlur11644" stdDeviation=".765"/></filter></defs><metadata id="metadata9047"/><g id="layer1"><g id="g11680" display="inline" opacity=".472" transform="matrix(1,0,0,0.7235787,-296.25,-23.805213)"><rect id="rect10838" width="27.5" height="2.625" x="306.625" y="93" fill="#000" fill-opacity="1" fill-rule="nonzero" stroke="none" stroke-width="1" display="inline" enable-background="accumulate" filter="url(#filter11642)" overflow="visible" rx="1.313" ry="1.814" visibility="visible" style="marker:none"/><rect id="rect11646" width="27.5" height="2.625" x="306.625" y="93" fill="#000" fill-opacity="1" fill-rule="nonzero" stroke="none" stroke-width="1" display="inline" enable-background="accumulate" filter="url(#filter11674)" opacity=".259" overflow="visible" rx="1.018" ry="1.814" transform="matrix(1.2887387,0,0,1,-92.504662,0)" visibility="visible" style="marker:none"/></g><g id="g10751" display="inline" transform="translate(-296,-50.000197)"><path id="path2682-8" fill="url(#linearGradient10725)" fill-opacity="1" stroke="url(#linearGradient10727)" stroke-dasharray="none" stroke-dashoffset=".5" stroke-linecap="round" stroke-linejoin="round" stroke-miterlimit="4" stroke-opacity="1" stroke-width="1" d="M 313.57714,86.05024 C 313.57714,86.05024 313.57714,90.97926 313.57714,90.97926 C 313.54854,92.24812 308.96042,92.5292 308.96042,92.5292 C 306.8812,92.46138 307.20408,94.584066 309.08542,94.49999 L 331.05041,94.49999 C 333.21898,94.635294 333.03834,92.464771 331.05041,92.5292 C 331.05041,92.5292 326.71981,92.24812 326.69127,90.97926 C 326.69127,90.97926 326.69127,86.05024 326.69127,86.05024 L 313.57714,86.05024 z" display="inline" enable-background="new"/><path id="path2692-7" fill="none" stroke="url(#radialGradient10533-9)" stroke-dashoffset=".5" stroke-linecap="round" stroke-linejoin="round" stroke-miterlimit="4" stroke-opacity="1" stroke-width="1" d="M 315.47785,86.78071 C 315.47785,87.83181 315.47785,90.86274 315.47785,90.86274 C 315.47785,91.72005 314.12897,93.57604 309.94085,93.56978 L 330.44498,93.56978 C 326.22291,93.56978 324.79056,91.72272 324.79056,90.86274 C 324.79056,90.86274 324.79056,87.83181 324.79056,86.78071 L 315.47785,86.78071 z" display="inline" enable-background="new"/><rect id="rect2694-8" width="23.695" height=".956" x="308.305" y="93" fill="url(#linearGradient10530-4)" fill-opacity="1" stroke="none" display="inline" enable-background="new" rx=".478" ry=".478"/><rect id="rect2722" width="45" height="29.982" x="297.5" y="55.518" fill="url(#radialGradient10747)" fill-opacity="1" stroke="url(#linearGradient10749)" stroke-dasharray="none" stroke-dashoffset=".5" stroke-linecap="round" stroke-linejoin="round" stroke-miterlimit="4" stroke-opacity="1" stroke-width="1" rx="1.063" ry="1.063"/><rect id="rect4642" width="43" height="28.018" x="298.5" y="56.5" fill="none" stroke="url(#radialGradient10744)" stroke-dasharray="none" stroke-dashoffset=".5" stroke-linecap="round" stroke-linejoin="round" stroke-miterlimit="4" stroke-opacity="1" stroke-width="1" display="inline" enable-background="new" rx="0" ry="0"/><rect id="rect5043" width="43" height="28.018" x="298.5" y="56.5" fill="none" stroke="#fff" stroke-dasharray="none" stroke-dashoffset=".5" stroke-linecap="round" stroke-linejoin="round" stroke-miterlimit="4" stroke-opacity="1" stroke-width="1" display="inline" enable-background="new" opacity=".15" rx="0" ry="0"/><path id="rect5045" fill="#888a85" fill-opacity="1" stroke="#555753" stroke-dashoffset=".5" stroke-linecap="butt" stroke-linejoin="round" stroke-miterlimit="4" stroke-opacity="1" stroke-width="1" d="M 337.50563,86.002816 C 337.50563,86.002816 337.49963,85.5 337.49963,85.5 C 337.49963,84.946 337.94563,84.5 338.49963,84.5 C 339.05363,84.5 339.49963,84.946 339.49963,85.5 C 339.49963,85.5 339.51523,85.998552 339.51523,85.998552"/><rect id="rect2716" width="41" height="24" x="299.5" y="58.5" fill="url(#radialGradient10739)" fill-opacity="1" fill-rule="evenodd" stroke="#2e3436" stroke-linecap="butt" stroke-linejoin="miter" stroke-opacity="1" stroke-width="1" display="inline" enable-background="new"/><path id="rect4785" fill="url(#radialGradient10736)" fill-opacity="1" stroke="none" d="M 330,59 L 340,59 L 340,82 L 318,82 L 330,59 z" opacity=".245"/><rect id="rect3466" width="40" height="23" x="300" y="59" fill="url(#linearGradient10733)" fill-opacity="1" fill-rule="evenodd" stroke="none" display="inline" enable-background="new" opacity=".15"/><path id="path10688-3" fill="url(#radialGradient10730)" fill-opacity="1" stroke="none" d="M 317.0849,59.217901 L 324.79566,59.217901 L 315.63422,79.135653 L 311.85218,78.911858 L 317.0849,59.217901 L 317.0849,59.217901 L 317.0849,59.217901 z" display="inline" enable-background="new" opacity=".245"/></g><path id="path2188" fill="#dce8f5" fill-opacity="1" fill-rule="evenodd" stroke="#adc8e3" stroke-dasharray="none" stroke-linecap="butt" stroke-linejoin="miter" stroke-miterlimit="10" stroke-opacity=".416" stroke-width="1" d="M 12.390826,20.935521 L 4.3689958,20.935521 L 4.3689958,22.152527 L 14.087782,22.152527 L 15.493704,16.239406 L 18.956218,29.936926 L 22.16494,19.117226 L 25.059484,25.029029 L 28.946444,21.51706 L 43.654996,21.51706 L 43.654996,19.457415 L 28.505371,19.457415 L 25.335155,22.597015 L 22.059693,15.937862 L 19.049859,24.11276 L 15.781326,11.248986 L 12.390826,20.935521 z" display="inline" enable-background="new" opacity="1"/><path id="path3088" fill="#729fcf" fill-opacity="1" fill-rule="evenodd" stroke="#3465a4" stroke-dasharray="none" stroke-linecap="butt" stroke-linejoin="miter" stroke-miterlimit="4" stroke-opacity=".416" stroke-width="1" d="M 11.515826,20.012552 L 3.3689958,20.012552 L 3.3689958,23.061303 L 14.962782,22.936303 L 15.618704,19.893661 L 18.963365,32.602 L 22.53994,21.135365 L 25.059484,26.551465 L 29.321444,22.442883 L 44.279996,22.317883 L 44.279996,18.408345 L 28.505371,18.283345 L 25.460155,21.4563 L 22.059693,13.66589 L 19.424859,20.60454 L 15.906326,8.3339308 L 11.515826,20.012552 z" display="inline" enable-background="new" opacity=".381"/></g></svg>