<svg xmlns="http://www.w3.org/2000/svg" xmlns:svg="http://www.w3.org/2000/svg" id="svg3049" width="16" height="16" version="1.1"><defs id="defs3051"><style id="current-color-scheme" type="text/css">.ColorScheme-Text{color:#4d4d4d}</style></defs><metadata id="metadata3054"/><g id="layer1" transform="translate(-421.71429,-531.79074)"><path id="rect4145-6-8-2" fill="currentColor" fill-opacity="1" fill-rule="nonzero" stroke="none" stroke-width="1" d="m 424.71429,533.79074 -1,1 0,1 0,0.3125 4,5.65625 0,0.0312 0,2 4,2 0,-4 0,-0.0312 4,-5.65625 0,-1.3125 -1,-1 -4,0 -1.75,0 z m 0,1 4.25,0 1.75,0 4,0 0,1 -4,5.625 0,0.375 0,1 0,1 -2,-1 0,0 0,-1 0,-0.375 -4,-5.625 z" style="marker:none" class="ColorScheme-Text" display="inline" enable-background="accumulate" overflow="visible" visibility="visible"/></g></svg>
