<svg xmlns="http://www.w3.org/2000/svg" xmlns:svg="http://www.w3.org/2000/svg" id="svg7384" width="16" height="16" version="1.1"><metadata id="metadata90"/><title id="title9167">elementary Symbolic Icon Theme</title><defs id="defs7386"><filter id="filter7554" color-interpolation-filters="sRGB"><feBlend id="feBlend7556" in2="BackgroundImage" mode="darken"/></filter><filter id="filter7554-7" color-interpolation-filters="sRGB"><feBlend id="feBlend7556-6" in2="BackgroundImage" mode="darken"/></filter></defs><g id="layer12" display="inline" transform="translate(-273.0004,12)"><path id="path25376" fill="#bebebe" fill-opacity="1" fill-rule="nonzero" stroke="none" stroke-width="1" d="m 281.0004,-9.9999971 2.25,2.2232143 -1.71428,1.7142857 c -0.0129,0.012874 -0.0147,0.01344 -0.0268,0.026786 -0.38059,0.420576 -0.37876,1.0676691 0.0268,1.4732143 0.40534,0.4053428 1.05262,0.433584 1.47321,0.053571 l 0.21429,-0.2142857 1.55357,-1.5267857 2.22321,2.25 0,-6 z m -6,6 0,6 6,0 -2.25,-2.25000001 1.71429,-1.71428569 c 0.0129,-0.012874 0.0147,-0.01344 0.0268,-0.026786 0.38059,-0.4205768 0.37876,-1.0676699 -0.0268,-1.4732143 -0.40534,-0.4053433 -1.07941,-0.4335809 -1.5,-0.053572 l -0.1875,0.2142858 -1.55357,1.5535714 z" color="#bebebe" display="inline" enable-background="accumulate" overflow="visible" visibility="visible" style="marker:none"/></g></svg>