<svg xmlns="http://www.w3.org/2000/svg" xmlns:svg="http://www.w3.org/2000/svg" id="svg7384" width="16" height="16" version="1.1"><metadata id="metadata90"/><title id="title9167">elementary Symbolic Icon Theme</title><defs id="defs7386"><filter id="filter7554" color-interpolation-filters="sRGB"><feBlend id="feBlend7556" in2="BackgroundImage" mode="darken"/></filter><filter id="filter7554-7" color-interpolation-filters="sRGB"><feBlend id="feBlend7556-6" in2="BackgroundImage" mode="darken"/></filter></defs><g id="layer12" display="inline" transform="translate(-313.0004,-188)"><path id="path3288-51-5" fill="#bebebe" fill-opacity="1" fill-rule="nonzero" stroke="none" stroke-width="1" d="m 321.0004,190 2.25,2.22322 -1.71428,1.71428 c -0.0129,0.0129 -0.0147,0.0134 -0.0268,0.0268 -0.38059,0.42057 -0.37876,1.06767 0.0268,1.47321 0.40534,0.40535 1.05262,0.43359 1.47321,0.0536 l 0.21429,-0.21428 1.55357,-1.52679 2.22321,2.25 0,-6 z m -6,6 0,6 6,0 -2.25,-2.25 1.71429,-1.71428 c 0.0129,-0.0129 0.0147,-0.0134 0.0268,-0.0268 0.38059,-0.42058 0.37876,-1.06767 -0.0268,-1.47321 -0.40534,-0.40535 -1.07941,-0.43358 -1.5,-0.0536 l -0.1875,0.21428 -1.55357,1.55357 z" color="#bebebe" display="inline" enable-background="accumulate" overflow="visible" visibility="visible" style="marker:none"/></g></svg>